<?xml version="1.0" encoding="utf-8" standalone="no"?>
<!DOCTYPE svg PUBLIC "-//W3C//DTD SVG 1.1//EN"
  "http://www.w3.org/Graphics/SVG/1.1/DTD/svg11.dtd">
<svg height="381.6pt" version="1.1" viewBox="0 0 1080 381.6" width="1080pt" xmlns="http://www.w3.org/2000/svg" xmlns:xlink="http://www.w3.org/1999/xlink">
 <metadata>
  <rdf:RDF xmlns:cc="http://creativecommons.org/ns#" xmlns:dc="http://purl.org/dc/elements/1.1/" xmlns:rdf="http://www.w3.org/1999/02/22-rdf-syntax-ns#">
   <cc:Work>
    <dc:type rdf:resource="http://purl.org/dc/dcmitype/StillImage"/>
    <dc:date>2021-10-07T08:59:00.654531</dc:date>
    <dc:format>image/svg+xml</dc:format>
    <dc:creator>
     <cc:Agent>
      <dc:title>Matplotlib v3.4.2, https://matplotlib.org/</dc:title>
     </cc:Agent>
    </dc:creator>
   </cc:Work>
  </rdf:RDF>
 </metadata>
 <defs>
  <style type="text/css">*{stroke-linecap:butt;stroke-linejoin:round;}</style>
 </defs>
 <g id="figure_1">
  <g id="patch_1">
   <path d="M 0 381.6 
L 1080 381.6 
L 1080 0 
L 0 0 
z
" style="fill:none;"/>
  </g>
  <g id="axes_1">
   <g id="patch_2">
    <path d="M 380.933073 234.557864 
C 383.591406 227.254154 385.593091 219.727897 386.914329 212.068572 
C 388.235566 204.409247 388.871101 196.647329 388.813376 188.875097 
L 339.57944 189.24076 
C 339.615424 194.0858 339.219246 198.924411 338.395615 203.699067 
C 337.571984 208.473723 336.324178 213.165428 334.667031 217.718402 
L 380.933073 234.557864 
z
" style="fill:#2ca02c;stroke:#ffffff;stroke-linejoin:miter;stroke-width:3;"/>
   </g>
   <g id="patch_3">
    <path d="M 388.813376 188.875097 
C 388.726717 177.207131 387.078298 165.603112 383.912096 154.372614 
C 380.745893 143.142115 376.090316 132.385902 370.069565 122.390928 
L 327.894957 147.795978 
C 331.648161 154.026627 334.550347 160.731816 336.524088 167.732664 
C 338.49783 174.733512 339.525418 181.967204 339.57944 189.24076 
L 388.813376 188.875097 
z
" style="fill:#1f77b4;stroke:#ffffff;stroke-linejoin:miter;stroke-width:3;"/>
   </g>
   <g id="patch_4">
    <path d="M 370.069565 122.390928 
C 355.158837 97.637813 332.453386 78.513723 305.52586 68.027788 
C 278.598334 57.541853 248.939235 56.274494 221.215352 64.425126 
C 193.491469 72.575759 169.237385 89.693227 152.269421 113.084138 
C 135.301457 136.475048 126.55883 164.844659 127.417172 193.729079 
L 176.630742 192.266627 
C 176.09567 174.260709 181.545633 156.575712 192.123092 141.994328 
C 202.700551 127.412944 217.820019 116.742287 235.102484 111.66136 
C 252.384948 106.580433 270.873784 107.370477 287.659817 113.907181 
C 304.44585 120.443884 318.599934 132.365425 327.894957 147.795978 
L 370.069565 122.390928 
z
" style="fill:#d62728;stroke:#ffffff;stroke-linejoin:miter;stroke-width:3;"/>
   </g>
   <g id="patch_5">
    <path d="M 127.417172 193.729079 
C 128.31998 224.109825 139.790314 253.244829 159.841178 276.087062 
C 179.892043 298.929295 207.294689 314.078948 237.302182 318.911662 
C 267.309676 323.744375 298.083109 317.963992 324.291629 302.571843 
C 350.500149 287.179694 370.537656 263.119035 380.933071 234.55787 
L 334.667029 217.718406 
C 328.186754 235.522813 315.695809 250.521704 299.357988 260.116834 
C 283.020168 269.711965 263.83668 273.31533 245.130663 270.302721 
C 226.424645 267.290113 209.342433 257.846149 196.843161 243.606799 
C 184.343889 229.367449 177.193532 211.205322 176.630742 192.266627 
L 127.417172 193.729079 
z
" style="fill:#ff7f0e;stroke:#ffffff;stroke-linejoin:miter;stroke-width:3;"/>
   </g>
   <g id="matplotlib.axis_1"/>
   <g id="matplotlib.axis_2"/>
   <g id="text_1">
    <!-- No -->
    <g style="fill:#2ca02c;" transform="translate(399.796938 217.602079)scale(0.12 -0.12)">
     <defs>
      <path d="M 588 4666 
L 1931 4666 
L 3628 1466 
L 3628 4666 
L 4769 4666 
L 4769 0 
L 3425 0 
L 1728 3200 
L 1728 0 
L 588 0 
L 588 4666 
z
" id="DejaVuSans-Bold-4e" transform="scale(0.015625)"/>
      <path d="M 2203 2784 
Q 1831 2784 1636 2517 
Q 1441 2250 1441 1747 
Q 1441 1244 1636 976 
Q 1831 709 2203 709 
Q 2569 709 2762 976 
Q 2956 1244 2956 1747 
Q 2956 2250 2762 2517 
Q 2569 2784 2203 2784 
z
M 2203 3584 
Q 3106 3584 3614 3096 
Q 4122 2609 4122 1747 
Q 4122 884 3614 396 
Q 3106 -91 2203 -91 
Q 1297 -91 786 396 
Q 275 884 275 1747 
Q 275 2609 786 3096 
Q 1297 3584 2203 3584 
z
" id="DejaVuSans-Bold-6f" transform="scale(0.015625)"/>
     </defs>
     <use xlink:href="#DejaVuSans-Bold-4e"/>
     <use x="83.691406" xlink:href="#DejaVuSans-Bold-6f"/>
    </g>
   </g>
   <g id="text_2">
    <!-- 6% -->
    <g style="fill:#ffffff;" transform="translate(350.962235 210.935308)scale(0.12 -0.12)">
     <defs>
      <path d="M 2316 2303 
Q 2000 2303 1842 2098 
Q 1684 1894 1684 1484 
Q 1684 1075 1842 870 
Q 2000 666 2316 666 
Q 2634 666 2792 870 
Q 2950 1075 2950 1484 
Q 2950 1894 2792 2098 
Q 2634 2303 2316 2303 
z
M 3803 4544 
L 3803 3681 
Q 3506 3822 3243 3889 
Q 2981 3956 2731 3956 
Q 2194 3956 1894 3657 
Q 1594 3359 1544 2772 
Q 1750 2925 1990 3001 
Q 2231 3078 2516 3078 
Q 3231 3078 3670 2659 
Q 4109 2241 4109 1563 
Q 4109 813 3618 361 
Q 3128 -91 2303 -91 
Q 1394 -91 895 523 
Q 397 1138 397 2266 
Q 397 3422 980 4083 
Q 1563 4744 2578 4744 
Q 2900 4744 3203 4694 
Q 3506 4644 3803 4544 
z
" id="DejaVuSans-Bold-36" transform="scale(0.015625)"/>
      <path d="M 4959 1925 
Q 4738 1925 4616 1733 
Q 4494 1541 4494 1184 
Q 4494 825 4614 633 
Q 4734 441 4959 441 
Q 5184 441 5303 633 
Q 5422 825 5422 1184 
Q 5422 1541 5301 1733 
Q 5181 1925 4959 1925 
z
M 4959 2450 
Q 5541 2450 5875 2112 
Q 6209 1775 6209 1184 
Q 6209 594 5875 251 
Q 5541 -91 4959 -91 
Q 4378 -91 4042 251 
Q 3706 594 3706 1184 
Q 3706 1772 4042 2111 
Q 4378 2450 4959 2450 
z
M 2094 -91 
L 1403 -91 
L 4319 4750 
L 5013 4750 
L 2094 -91 
z
M 1453 4750 
Q 2034 4750 2367 4411 
Q 2700 4072 2700 3481 
Q 2700 2891 2367 2550 
Q 2034 2209 1453 2209 
Q 872 2209 539 2550 
Q 206 2891 206 3481 
Q 206 4072 539 4411 
Q 872 4750 1453 4750 
z
M 1453 4225 
Q 1228 4225 1106 4031 
Q 984 3838 984 3481 
Q 984 3122 1106 2926 
Q 1228 2731 1453 2731 
Q 1678 2731 1798 2926 
Q 1919 3122 1919 3481 
Q 1919 3838 1797 4031 
Q 1675 4225 1453 4225 
z
" id="DejaVuSans-Bold-25" transform="scale(0.015625)"/>
     </defs>
     <use xlink:href="#DejaVuSans-Bold-36"/>
     <use x="69.580078" xlink:href="#DejaVuSans-Bold-25"/>
    </g>
   </g>
   <g id="text_3">
    <!-- Unsure -->
    <g style="fill:#1f77b4;" transform="translate(396.494482 154.136525)scale(0.12 -0.12)">
     <defs>
      <path d="M 588 4666 
L 1791 4666 
L 1791 1869 
Q 1791 1291 1980 1042 
Q 2169 794 2597 794 
Q 3028 794 3217 1042 
Q 3406 1291 3406 1869 
L 3406 4666 
L 4609 4666 
L 4609 1869 
Q 4609 878 4112 393 
Q 3616 -91 2597 -91 
Q 1581 -91 1084 393 
Q 588 878 588 1869 
L 588 4666 
z
" id="DejaVuSans-Bold-55" transform="scale(0.015625)"/>
      <path d="M 4056 2131 
L 4056 0 
L 2931 0 
L 2931 347 
L 2931 1631 
Q 2931 2084 2911 2256 
Q 2891 2428 2841 2509 
Q 2775 2619 2662 2680 
Q 2550 2741 2406 2741 
Q 2056 2741 1856 2470 
Q 1656 2200 1656 1722 
L 1656 0 
L 538 0 
L 538 3500 
L 1656 3500 
L 1656 2988 
Q 1909 3294 2193 3439 
Q 2478 3584 2822 3584 
Q 3428 3584 3742 3212 
Q 4056 2841 4056 2131 
z
" id="DejaVuSans-Bold-6e" transform="scale(0.015625)"/>
      <path d="M 3272 3391 
L 3272 2541 
Q 2913 2691 2578 2766 
Q 2244 2841 1947 2841 
Q 1628 2841 1473 2761 
Q 1319 2681 1319 2516 
Q 1319 2381 1436 2309 
Q 1553 2238 1856 2203 
L 2053 2175 
Q 2913 2066 3209 1816 
Q 3506 1566 3506 1031 
Q 3506 472 3093 190 
Q 2681 -91 1863 -91 
Q 1516 -91 1145 -36 
Q 775 19 384 128 
L 384 978 
Q 719 816 1070 734 
Q 1422 653 1784 653 
Q 2113 653 2278 743 
Q 2444 834 2444 1013 
Q 2444 1163 2330 1236 
Q 2216 1309 1875 1350 
L 1678 1375 
Q 931 1469 631 1722 
Q 331 1975 331 2491 
Q 331 3047 712 3315 
Q 1094 3584 1881 3584 
Q 2191 3584 2531 3537 
Q 2872 3491 3272 3391 
z
" id="DejaVuSans-Bold-73" transform="scale(0.015625)"/>
      <path d="M 500 1363 
L 500 3500 
L 1625 3500 
L 1625 3150 
Q 1625 2866 1622 2436 
Q 1619 2006 1619 1863 
Q 1619 1441 1641 1255 
Q 1663 1069 1716 984 
Q 1784 875 1895 815 
Q 2006 756 2150 756 
Q 2500 756 2700 1025 
Q 2900 1294 2900 1772 
L 2900 3500 
L 4019 3500 
L 4019 0 
L 2900 0 
L 2900 506 
Q 2647 200 2364 54 
Q 2081 -91 1741 -91 
Q 1134 -91 817 281 
Q 500 653 500 1363 
z
" id="DejaVuSans-Bold-75" transform="scale(0.015625)"/>
      <path d="M 3138 2547 
Q 2991 2616 2845 2648 
Q 2700 2681 2553 2681 
Q 2122 2681 1889 2404 
Q 1656 2128 1656 1613 
L 1656 0 
L 538 0 
L 538 3500 
L 1656 3500 
L 1656 2925 
Q 1872 3269 2151 3426 
Q 2431 3584 2822 3584 
Q 2878 3584 2943 3579 
Q 3009 3575 3134 3559 
L 3138 2547 
z
" id="DejaVuSans-Bold-72" transform="scale(0.015625)"/>
      <path d="M 4031 1759 
L 4031 1441 
L 1416 1441 
Q 1456 1047 1700 850 
Q 1944 653 2381 653 
Q 2734 653 3104 758 
Q 3475 863 3866 1075 
L 3866 213 
Q 3469 63 3072 -14 
Q 2675 -91 2278 -91 
Q 1328 -91 801 392 
Q 275 875 275 1747 
Q 275 2603 792 3093 
Q 1309 3584 2216 3584 
Q 3041 3584 3536 3087 
Q 4031 2591 4031 1759 
z
M 2881 2131 
Q 2881 2450 2695 2645 
Q 2509 2841 2209 2841 
Q 1884 2841 1681 2658 
Q 1478 2475 1428 2131 
L 2881 2131 
z
" id="DejaVuSans-Bold-65" transform="scale(0.015625)"/>
     </defs>
     <use xlink:href="#DejaVuSans-Bold-55"/>
     <use x="81.201172" xlink:href="#DejaVuSans-Bold-6e"/>
     <use x="152.392578" xlink:href="#DejaVuSans-Bold-73"/>
     <use x="211.914062" xlink:href="#DejaVuSans-Bold-75"/>
     <use x="283.105469" xlink:href="#DejaVuSans-Bold-72"/>
     <use x="332.421875" xlink:href="#DejaVuSans-Bold-65"/>
    </g>
   </g>
   <g id="text_4">
    <!-- 9% -->
    <g style="fill:#ffffff;" transform="translate(348.560449 164.778541)scale(0.12 -0.12)">
     <defs>
      <path d="M 641 103 
L 641 966 
Q 928 831 1190 764 
Q 1453 697 1709 697 
Q 2247 697 2547 995 
Q 2847 1294 2900 1881 
Q 2688 1725 2447 1647 
Q 2206 1569 1925 1569 
Q 1209 1569 770 1986 
Q 331 2403 331 3084 
Q 331 3838 820 4291 
Q 1309 4744 2131 4744 
Q 3044 4744 3544 4128 
Q 4044 3513 4044 2388 
Q 4044 1231 3459 570 
Q 2875 -91 1856 -91 
Q 1528 -91 1228 -42 
Q 928 6 641 103 
z
M 2125 2350 
Q 2441 2350 2600 2554 
Q 2759 2759 2759 3169 
Q 2759 3575 2600 3781 
Q 2441 3988 2125 3988 
Q 1809 3988 1650 3781 
Q 1491 3575 1491 3169 
Q 1491 2759 1650 2554 
Q 1809 2350 2125 2350 
z
" id="DejaVuSans-Bold-39" transform="scale(0.015625)"/>
     </defs>
     <use xlink:href="#DejaVuSans-Bold-39"/>
     <use x="69.580078" xlink:href="#DejaVuSans-Bold-25"/>
    </g>
   </g>
   <g id="text_5">
    <!-- Yes (major) -->
    <g style="fill:#d62728;" transform="translate(140.628689 55.147414)scale(0.12 -0.12)">
     <defs>
      <path d="M -63 4666 
L 1253 4666 
L 2316 3003 
L 3378 4666 
L 4697 4666 
L 2919 1966 
L 2919 0 
L 1716 0 
L 1716 1966 
L -63 4666 
z
" id="DejaVuSans-Bold-59" transform="scale(0.015625)"/>
      <path id="DejaVuSans-Bold-20" transform="scale(0.015625)"/>
      <path d="M 2413 -844 
L 1484 -844 
Q 1006 -72 778 623 
Q 550 1319 550 2003 
Q 550 2688 779 3389 
Q 1009 4091 1484 4856 
L 2413 4856 
Q 2013 4116 1813 3408 
Q 1613 2700 1613 2009 
Q 1613 1319 1811 609 
Q 2009 -100 2413 -844 
z
" id="DejaVuSans-Bold-28" transform="scale(0.015625)"/>
      <path d="M 3781 2919 
Q 3994 3244 4286 3414 
Q 4578 3584 4928 3584 
Q 5531 3584 5847 3212 
Q 6163 2841 6163 2131 
L 6163 0 
L 5038 0 
L 5038 1825 
Q 5041 1866 5042 1909 
Q 5044 1953 5044 2034 
Q 5044 2406 4934 2573 
Q 4825 2741 4581 2741 
Q 4263 2741 4089 2478 
Q 3916 2216 3909 1719 
L 3909 0 
L 2784 0 
L 2784 1825 
Q 2784 2406 2684 2573 
Q 2584 2741 2328 2741 
Q 2006 2741 1831 2477 
Q 1656 2213 1656 1722 
L 1656 0 
L 531 0 
L 531 3500 
L 1656 3500 
L 1656 2988 
Q 1863 3284 2130 3434 
Q 2397 3584 2719 3584 
Q 3081 3584 3359 3409 
Q 3638 3234 3781 2919 
z
" id="DejaVuSans-Bold-6d" transform="scale(0.015625)"/>
      <path d="M 2106 1575 
Q 1756 1575 1579 1456 
Q 1403 1338 1403 1106 
Q 1403 894 1545 773 
Q 1688 653 1941 653 
Q 2256 653 2472 879 
Q 2688 1106 2688 1447 
L 2688 1575 
L 2106 1575 
z
M 3816 1997 
L 3816 0 
L 2688 0 
L 2688 519 
Q 2463 200 2181 54 
Q 1900 -91 1497 -91 
Q 953 -91 614 226 
Q 275 544 275 1050 
Q 275 1666 698 1953 
Q 1122 2241 2028 2241 
L 2688 2241 
L 2688 2328 
Q 2688 2594 2478 2717 
Q 2269 2841 1825 2841 
Q 1466 2841 1156 2769 
Q 847 2697 581 2553 
L 581 3406 
Q 941 3494 1303 3539 
Q 1666 3584 2028 3584 
Q 2975 3584 3395 3211 
Q 3816 2838 3816 1997 
z
" id="DejaVuSans-Bold-61" transform="scale(0.015625)"/>
      <path d="M 538 3500 
L 1656 3500 
L 1656 63 
Q 1656 -641 1318 -1011 
Q 981 -1381 341 -1381 
L -213 -1381 
L -213 -647 
L -19 -647 
Q 300 -647 419 -503 
Q 538 -359 538 63 
L 538 3500 
z
M 538 4863 
L 1656 4863 
L 1656 3950 
L 538 3950 
L 538 4863 
z
" id="DejaVuSans-Bold-6a" transform="scale(0.015625)"/>
      <path d="M 513 -844 
Q 913 -100 1113 609 
Q 1313 1319 1313 2009 
Q 1313 2700 1113 3408 
Q 913 4116 513 4856 
L 1441 4856 
Q 1916 4091 2145 3389 
Q 2375 2688 2375 2003 
Q 2375 1319 2147 623 
Q 1919 -72 1441 -844 
L 513 -844 
z
" id="DejaVuSans-Bold-29" transform="scale(0.015625)"/>
     </defs>
     <use xlink:href="#DejaVuSans-Bold-59"/>
     <use x="63.287109" xlink:href="#DejaVuSans-Bold-65"/>
     <use x="131.109375" xlink:href="#DejaVuSans-Bold-73"/>
     <use x="190.630859" xlink:href="#DejaVuSans-Bold-20"/>
     <use x="225.445312" xlink:href="#DejaVuSans-Bold-28"/>
     <use x="271.148438" xlink:href="#DejaVuSans-Bold-6d"/>
     <use x="375.347656" xlink:href="#DejaVuSans-Bold-61"/>
     <use x="442.828125" xlink:href="#DejaVuSans-Bold-6a"/>
     <use x="477.105469" xlink:href="#DejaVuSans-Bold-6f"/>
     <use x="545.806641" xlink:href="#DejaVuSans-Bold-72"/>
     <use x="595.123047" xlink:href="#DejaVuSans-Bold-29"/>
    </g>
   </g>
   <g id="text_6">
    <!-- 42% -->
    <g style="fill:#ffffff;" transform="translate(214.228366 92.820551)scale(0.12 -0.12)">
     <defs>
      <path d="M 2356 3675 
L 1038 1722 
L 2356 1722 
L 2356 3675 
z
M 2156 4666 
L 3494 4666 
L 3494 1722 
L 4159 1722 
L 4159 850 
L 3494 850 
L 3494 0 
L 2356 0 
L 2356 850 
L 288 850 
L 288 1881 
L 2156 4666 
z
" id="DejaVuSans-Bold-34" transform="scale(0.015625)"/>
      <path d="M 1844 884 
L 3897 884 
L 3897 0 
L 506 0 
L 506 884 
L 2209 2388 
Q 2438 2594 2547 2791 
Q 2656 2988 2656 3200 
Q 2656 3528 2436 3728 
Q 2216 3928 1850 3928 
Q 1569 3928 1234 3808 
Q 900 3688 519 3450 
L 519 4475 
Q 925 4609 1322 4679 
Q 1719 4750 2100 4750 
Q 2938 4750 3402 4381 
Q 3866 4013 3866 3353 
Q 3866 2972 3669 2642 
Q 3472 2313 2841 1759 
L 1844 884 
z
" id="DejaVuSans-Bold-32" transform="scale(0.015625)"/>
     </defs>
     <use xlink:href="#DejaVuSans-Bold-34"/>
     <use x="69.580078" xlink:href="#DejaVuSans-Bold-32"/>
     <use x="139.160156" xlink:href="#DejaVuSans-Bold-25"/>
    </g>
   </g>
   <g id="text_7">
    <!-- Yes (minor) -->
    <g style="fill:#ff7f0e;" transform="translate(157.879827 335.129478)scale(0.12 -0.12)">
     <defs>
      <path d="M 538 3500 
L 1656 3500 
L 1656 0 
L 538 0 
L 538 3500 
z
M 538 4863 
L 1656 4863 
L 1656 3950 
L 538 3950 
L 538 4863 
z
" id="DejaVuSans-Bold-69" transform="scale(0.015625)"/>
     </defs>
     <use xlink:href="#DejaVuSans-Bold-59"/>
     <use x="63.287109" xlink:href="#DejaVuSans-Bold-65"/>
     <use x="131.109375" xlink:href="#DejaVuSans-Bold-73"/>
     <use x="190.630859" xlink:href="#DejaVuSans-Bold-20"/>
     <use x="225.445312" xlink:href="#DejaVuSans-Bold-28"/>
     <use x="271.148438" xlink:href="#DejaVuSans-Bold-6d"/>
     <use x="375.347656" xlink:href="#DejaVuSans-Bold-69"/>
     <use x="409.625" xlink:href="#DejaVuSans-Bold-6e"/>
     <use x="480.816406" xlink:href="#DejaVuSans-Bold-6f"/>
     <use x="549.517578" xlink:href="#DejaVuSans-Bold-72"/>
     <use x="598.833984" xlink:href="#DejaVuSans-Bold-29"/>
    </g>
   </g>
   <g id="text_8">
    <!-- 44% -->
    <g style="fill:#ffffff;" transform="translate(227.09783 296.409779)scale(0.12 -0.12)">
     <use xlink:href="#DejaVuSans-Bold-34"/>
     <use x="69.580078" xlink:href="#DejaVuSans-Bold-34"/>
     <use x="139.160156" xlink:href="#DejaVuSans-Bold-25"/>
    </g>
   </g>
   <g id="text_9">
    <!-- Geology -->
    <g style="fill:#404050;" transform="translate(221.419485 186.3935)scale(0.16 -0.16)">
     <defs>
      <path d="M 4781 347 
Q 4331 128 3847 18 
Q 3363 -91 2847 -91 
Q 1681 -91 1000 561 
Q 319 1213 319 2328 
Q 319 3456 1012 4103 
Q 1706 4750 2913 4750 
Q 3378 4750 3804 4662 
Q 4231 4575 4609 4403 
L 4609 3438 
Q 4219 3659 3833 3768 
Q 3447 3878 3059 3878 
Q 2341 3878 1952 3476 
Q 1563 3075 1563 2328 
Q 1563 1588 1938 1184 
Q 2313 781 3003 781 
Q 3191 781 3352 804 
Q 3513 828 3641 878 
L 3641 1784 
L 2906 1784 
L 2906 2591 
L 4781 2591 
L 4781 347 
z
" id="DejaVuSans-Bold-47" transform="scale(0.015625)"/>
      <path d="M 538 4863 
L 1656 4863 
L 1656 0 
L 538 0 
L 538 4863 
z
" id="DejaVuSans-Bold-6c" transform="scale(0.015625)"/>
      <path d="M 2919 594 
Q 2688 288 2409 144 
Q 2131 0 1766 0 
Q 1125 0 706 504 
Q 288 1009 288 1791 
Q 288 2575 706 3076 
Q 1125 3578 1766 3578 
Q 2131 3578 2409 3434 
Q 2688 3291 2919 2981 
L 2919 3500 
L 4044 3500 
L 4044 353 
Q 4044 -491 3511 -936 
Q 2978 -1381 1966 -1381 
Q 1638 -1381 1331 -1331 
Q 1025 -1281 716 -1178 
L 716 -306 
Q 1009 -475 1290 -558 
Q 1572 -641 1856 -641 
Q 2406 -641 2662 -400 
Q 2919 -159 2919 353 
L 2919 594 
z
M 2181 2772 
Q 1834 2772 1640 2515 
Q 1447 2259 1447 1791 
Q 1447 1309 1634 1061 
Q 1822 813 2181 813 
Q 2531 813 2725 1069 
Q 2919 1325 2919 1791 
Q 2919 2259 2725 2515 
Q 2531 2772 2181 2772 
z
" id="DejaVuSans-Bold-67" transform="scale(0.015625)"/>
      <path d="M 78 3500 
L 1197 3500 
L 2138 1125 
L 2938 3500 
L 4056 3500 
L 2584 -331 
Q 2363 -916 2067 -1148 
Q 1772 -1381 1288 -1381 
L 641 -1381 
L 641 -647 
L 991 -647 
Q 1275 -647 1404 -556 
Q 1534 -466 1606 -231 
L 1638 -134 
L 78 3500 
z
" id="DejaVuSans-Bold-79" transform="scale(0.015625)"/>
     </defs>
     <use xlink:href="#DejaVuSans-Bold-47"/>
     <use x="82.080078" xlink:href="#DejaVuSans-Bold-65"/>
     <use x="149.902344" xlink:href="#DejaVuSans-Bold-6f"/>
     <use x="218.603516" xlink:href="#DejaVuSans-Bold-6c"/>
     <use x="252.880859" xlink:href="#DejaVuSans-Bold-6f"/>
     <use x="321.582031" xlink:href="#DejaVuSans-Bold-67"/>
     <use x="393.164062" xlink:href="#DejaVuSans-Bold-79"/>
    </g>
   </g>
   <g id="text_10">
    <!--  -->
    <g style="fill:#404050;" transform="translate(258.088235 179.719875)scale(0.12 -0.12)"/>
    <!--  -->
    <g style="fill:#404050;" transform="translate(258.088235 193.15725)scale(0.12 -0.12)"/>
    <!-- 141 respondents -->
    <g style="fill:#404050;" transform="translate(207.515735 206.594625)scale(0.12 -0.12)">
     <defs>
      <path d="M 794 531 
L 1825 531 
L 1825 4091 
L 703 3866 
L 703 4441 
L 1819 4666 
L 2450 4666 
L 2450 531 
L 3481 531 
L 3481 0 
L 794 0 
L 794 531 
z
" id="DejaVuSans-31" transform="scale(0.015625)"/>
      <path d="M 2419 4116 
L 825 1625 
L 2419 1625 
L 2419 4116 
z
M 2253 4666 
L 3047 4666 
L 3047 1625 
L 3713 1625 
L 3713 1100 
L 3047 1100 
L 3047 0 
L 2419 0 
L 2419 1100 
L 313 1100 
L 313 1709 
L 2253 4666 
z
" id="DejaVuSans-34" transform="scale(0.015625)"/>
      <path id="DejaVuSans-20" transform="scale(0.015625)"/>
      <path d="M 2631 2963 
Q 2534 3019 2420 3045 
Q 2306 3072 2169 3072 
Q 1681 3072 1420 2755 
Q 1159 2438 1159 1844 
L 1159 0 
L 581 0 
L 581 3500 
L 1159 3500 
L 1159 2956 
Q 1341 3275 1631 3429 
Q 1922 3584 2338 3584 
Q 2397 3584 2469 3576 
Q 2541 3569 2628 3553 
L 2631 2963 
z
" id="DejaVuSans-72" transform="scale(0.015625)"/>
      <path d="M 3597 1894 
L 3597 1613 
L 953 1613 
Q 991 1019 1311 708 
Q 1631 397 2203 397 
Q 2534 397 2845 478 
Q 3156 559 3463 722 
L 3463 178 
Q 3153 47 2828 -22 
Q 2503 -91 2169 -91 
Q 1331 -91 842 396 
Q 353 884 353 1716 
Q 353 2575 817 3079 
Q 1281 3584 2069 3584 
Q 2775 3584 3186 3129 
Q 3597 2675 3597 1894 
z
M 3022 2063 
Q 3016 2534 2758 2815 
Q 2500 3097 2075 3097 
Q 1594 3097 1305 2825 
Q 1016 2553 972 2059 
L 3022 2063 
z
" id="DejaVuSans-65" transform="scale(0.015625)"/>
      <path d="M 2834 3397 
L 2834 2853 
Q 2591 2978 2328 3040 
Q 2066 3103 1784 3103 
Q 1356 3103 1142 2972 
Q 928 2841 928 2578 
Q 928 2378 1081 2264 
Q 1234 2150 1697 2047 
L 1894 2003 
Q 2506 1872 2764 1633 
Q 3022 1394 3022 966 
Q 3022 478 2636 193 
Q 2250 -91 1575 -91 
Q 1294 -91 989 -36 
Q 684 19 347 128 
L 347 722 
Q 666 556 975 473 
Q 1284 391 1588 391 
Q 1994 391 2212 530 
Q 2431 669 2431 922 
Q 2431 1156 2273 1281 
Q 2116 1406 1581 1522 
L 1381 1569 
Q 847 1681 609 1914 
Q 372 2147 372 2553 
Q 372 3047 722 3315 
Q 1072 3584 1716 3584 
Q 2034 3584 2315 3537 
Q 2597 3491 2834 3397 
z
" id="DejaVuSans-73" transform="scale(0.015625)"/>
      <path d="M 1159 525 
L 1159 -1331 
L 581 -1331 
L 581 3500 
L 1159 3500 
L 1159 2969 
Q 1341 3281 1617 3432 
Q 1894 3584 2278 3584 
Q 2916 3584 3314 3078 
Q 3713 2572 3713 1747 
Q 3713 922 3314 415 
Q 2916 -91 2278 -91 
Q 1894 -91 1617 61 
Q 1341 213 1159 525 
z
M 3116 1747 
Q 3116 2381 2855 2742 
Q 2594 3103 2138 3103 
Q 1681 3103 1420 2742 
Q 1159 2381 1159 1747 
Q 1159 1113 1420 752 
Q 1681 391 2138 391 
Q 2594 391 2855 752 
Q 3116 1113 3116 1747 
z
" id="DejaVuSans-70" transform="scale(0.015625)"/>
      <path d="M 1959 3097 
Q 1497 3097 1228 2736 
Q 959 2375 959 1747 
Q 959 1119 1226 758 
Q 1494 397 1959 397 
Q 2419 397 2687 759 
Q 2956 1122 2956 1747 
Q 2956 2369 2687 2733 
Q 2419 3097 1959 3097 
z
M 1959 3584 
Q 2709 3584 3137 3096 
Q 3566 2609 3566 1747 
Q 3566 888 3137 398 
Q 2709 -91 1959 -91 
Q 1206 -91 779 398 
Q 353 888 353 1747 
Q 353 2609 779 3096 
Q 1206 3584 1959 3584 
z
" id="DejaVuSans-6f" transform="scale(0.015625)"/>
      <path d="M 3513 2113 
L 3513 0 
L 2938 0 
L 2938 2094 
Q 2938 2591 2744 2837 
Q 2550 3084 2163 3084 
Q 1697 3084 1428 2787 
Q 1159 2491 1159 1978 
L 1159 0 
L 581 0 
L 581 3500 
L 1159 3500 
L 1159 2956 
Q 1366 3272 1645 3428 
Q 1925 3584 2291 3584 
Q 2894 3584 3203 3211 
Q 3513 2838 3513 2113 
z
" id="DejaVuSans-6e" transform="scale(0.015625)"/>
      <path d="M 2906 2969 
L 2906 4863 
L 3481 4863 
L 3481 0 
L 2906 0 
L 2906 525 
Q 2725 213 2448 61 
Q 2172 -91 1784 -91 
Q 1150 -91 751 415 
Q 353 922 353 1747 
Q 353 2572 751 3078 
Q 1150 3584 1784 3584 
Q 2172 3584 2448 3432 
Q 2725 3281 2906 2969 
z
M 947 1747 
Q 947 1113 1208 752 
Q 1469 391 1925 391 
Q 2381 391 2643 752 
Q 2906 1113 2906 1747 
Q 2906 2381 2643 2742 
Q 2381 3103 1925 3103 
Q 1469 3103 1208 2742 
Q 947 2381 947 1747 
z
" id="DejaVuSans-64" transform="scale(0.015625)"/>
      <path d="M 1172 4494 
L 1172 3500 
L 2356 3500 
L 2356 3053 
L 1172 3053 
L 1172 1153 
Q 1172 725 1289 603 
Q 1406 481 1766 481 
L 2356 481 
L 2356 0 
L 1766 0 
Q 1100 0 847 248 
Q 594 497 594 1153 
L 594 3053 
L 172 3053 
L 172 3500 
L 594 3500 
L 594 4494 
L 1172 4494 
z
" id="DejaVuSans-74" transform="scale(0.015625)"/>
     </defs>
     <use xlink:href="#DejaVuSans-31"/>
     <use x="63.623047" xlink:href="#DejaVuSans-34"/>
     <use x="127.246094" xlink:href="#DejaVuSans-31"/>
     <use x="190.869141" xlink:href="#DejaVuSans-20"/>
     <use x="222.65625" xlink:href="#DejaVuSans-72"/>
     <use x="261.519531" xlink:href="#DejaVuSans-65"/>
     <use x="323.042969" xlink:href="#DejaVuSans-73"/>
     <use x="375.142578" xlink:href="#DejaVuSans-70"/>
     <use x="438.619141" xlink:href="#DejaVuSans-6f"/>
     <use x="499.800781" xlink:href="#DejaVuSans-6e"/>
     <use x="563.179688" xlink:href="#DejaVuSans-64"/>
     <use x="626.65625" xlink:href="#DejaVuSans-65"/>
     <use x="688.179688" xlink:href="#DejaVuSans-6e"/>
     <use x="751.558594" xlink:href="#DejaVuSans-74"/>
     <use x="790.767578" xlink:href="#DejaVuSans-73"/>
    </g>
   </g>
  </g>
  <g id="axes_2">
   <g id="patch_6">
    <path d="M 660.513666 228.795789 
C 662.038894 224.605261 663.316662 220.328758 664.340366 215.988381 
C 665.364071 211.648003 666.131947 207.25124 666.640025 202.82081 
L 617.725327 197.211311 
C 617.43691 199.726298 617.001016 202.222175 616.419897 204.686044 
C 615.838779 207.149913 615.113438 209.577522 614.247624 211.956327 
L 660.513666 228.795789 
z
" style="fill:#2ca02c;stroke:#ffffff;stroke-linejoin:miter;stroke-width:3;"/>
   </g>
   <g id="patch_7">
    <path d="M 666.640025 202.82081 
C 667.402415 196.172782 667.577375 189.470475 667.16287 182.791725 
C 666.748366 176.112975 665.746009 169.483736 664.167441 162.980995 
L 616.321734 174.595749 
C 617.217828 178.28711 617.786828 182.050279 618.022126 185.841554 
C 618.257425 189.632829 618.158107 193.437476 617.725327 197.211311 
L 666.640025 202.82081 
z
" style="fill:#1f77b4;stroke:#ffffff;stroke-linejoin:miter;stroke-width:3;"/>
   </g>
   <g id="patch_8">
    <path d="M 664.167441 162.980995 
C 660.40715 147.490892 653.436193 132.961457 643.706782 120.335229 
C 633.977372 107.709001 621.704542 97.265038 607.684443 89.680851 
C 593.664343 82.096664 578.206841 77.539874 562.314678 76.306085 
C 546.422516 75.072296 530.446934 77.188776 515.424283 82.518228 
C 500.401633 87.847679 486.663939 96.272313 475.102377 107.245615 
C 463.540815 118.218918 454.410914 131.498361 448.304939 146.222496 
C 442.198965 160.946631 439.251868 176.790031 439.65483 192.72492 
C 440.057792 208.65981 443.801907 224.334002 450.64429 238.730699 
L 495.112691 217.596 
C 491.228528 209.423539 489.103135 200.52589 488.874389 191.480255 
C 488.645643 182.434619 490.318598 173.440918 493.78473 165.082581 
C 497.250862 156.724245 502.433562 149.186006 508.996625 142.956876 
C 515.559688 136.727746 523.358059 131.945399 531.885851 128.92007 
C 540.413643 125.894741 549.482379 124.693295 558.503761 125.393671 
C 567.525142 126.094046 576.299784 128.680764 584.258465 132.986021 
C 592.217147 137.291278 599.18397 143.219922 604.70699 150.387356 
C 610.230009 157.55479 614.187159 165.802602 616.321734 174.595749 
L 664.167441 162.980995 
z
" style="fill:#d62728;stroke:#ffffff;stroke-linejoin:miter;stroke-width:3;"/>
   </g>
   <g id="patch_9">
    <path d="M 450.64429 238.730699 
C 460.281073 259.006945 475.70171 275.987922 494.958137 287.52845 
C 514.214563 299.068979 536.460254 304.661729 558.884947 303.600179 
C 581.30964 302.538629 602.927532 294.869444 621.007668 281.56146 
C 639.087804 268.253477 652.835371 249.891722 660.51366 228.795807 
L 614.24762 211.956337 
C 609.888945 223.931692 602.08497 234.354968 591.821558 241.909409 
C 581.558146 249.46385 569.286484 253.817357 556.556832 254.419959 
C 543.827179 255.022561 531.199138 251.847767 520.267991 245.296644 
C 509.336844 238.745522 500.58313 229.106061 495.112691 217.596 
L 450.64429 238.730699 
z
" style="fill:#ff7f0e;stroke:#ffffff;stroke-linejoin:miter;stroke-width:3;"/>
   </g>
   <g id="matplotlib.axis_3"/>
   <g id="matplotlib.axis_4"/>
   <g id="text_11">
    <!-- No -->
    <g style="fill:#2ca02c;" transform="translate(675.424403 221.913869)scale(0.12 -0.12)">
     <use xlink:href="#DejaVuSans-Bold-4e"/>
     <use x="83.691406" xlink:href="#DejaVuSans-Bold-6f"/>
    </g>
   </g>
   <g id="text_12">
    <!-- 4% -->
    <g style="fill:#ffffff;" transform="translate(631.985418 214.071155)scale(0.12 -0.12)">
     <use xlink:href="#DejaVuSans-Bold-34"/>
     <use x="69.580078" xlink:href="#DejaVuSans-Bold-25"/>
    </g>
   </g>
   <g id="text_13">
    <!-- Unsure -->
    <g style="fill:#1f77b4;" transform="translate(678.529157 185.397547)scale(0.12 -0.12)">
     <use xlink:href="#DejaVuSans-Bold-55"/>
     <use x="81.201172" xlink:href="#DejaVuSans-Bold-6e"/>
     <use x="152.392578" xlink:href="#DejaVuSans-Bold-73"/>
     <use x="211.914062" xlink:href="#DejaVuSans-Bold-75"/>
     <use x="283.105469" xlink:href="#DejaVuSans-Bold-72"/>
     <use x="332.421875" xlink:href="#DejaVuSans-Bold-65"/>
    </g>
   </g>
   <g id="text_14">
    <!-- 6% -->
    <g style="fill:#ffffff;" transform="translate(634.243421 187.51383)scale(0.12 -0.12)">
     <use xlink:href="#DejaVuSans-Bold-36"/>
     <use x="69.580078" xlink:href="#DejaVuSans-Bold-25"/>
    </g>
   </g>
   <g id="text_15">
    <!-- Yes (major) -->
    <g style="fill:#d62728;" transform="translate(434.717337 75.049825)scale(0.12 -0.12)">
     <use xlink:href="#DejaVuSans-Bold-59"/>
     <use x="63.287109" xlink:href="#DejaVuSans-Bold-65"/>
     <use x="131.109375" xlink:href="#DejaVuSans-Bold-73"/>
     <use x="190.630859" xlink:href="#DejaVuSans-Bold-20"/>
     <use x="225.445312" xlink:href="#DejaVuSans-Bold-28"/>
     <use x="271.148438" xlink:href="#DejaVuSans-Bold-6d"/>
     <use x="375.347656" xlink:href="#DejaVuSans-Bold-61"/>
     <use x="442.828125" xlink:href="#DejaVuSans-Bold-6a"/>
     <use x="477.105469" xlink:href="#DejaVuSans-Bold-6f"/>
     <use x="545.806641" xlink:href="#DejaVuSans-Bold-72"/>
     <use x="595.123047" xlink:href="#DejaVuSans-Bold-29"/>
    </g>
   </g>
   <g id="text_16">
    <!-- 53% -->
    <g style="fill:#ffffff;" transform="translate(508.677864 107.295032)scale(0.12 -0.12)">
     <defs>
      <path d="M 678 4666 
L 3669 4666 
L 3669 3781 
L 1638 3781 
L 1638 3059 
Q 1775 3097 1914 3117 
Q 2053 3138 2203 3138 
Q 3056 3138 3531 2711 
Q 4006 2284 4006 1522 
Q 4006 766 3489 337 
Q 2972 -91 2053 -91 
Q 1656 -91 1267 -14 
Q 878 63 494 219 
L 494 1166 
Q 875 947 1217 837 
Q 1559 728 1863 728 
Q 2300 728 2551 942 
Q 2803 1156 2803 1522 
Q 2803 1891 2551 2103 
Q 2300 2316 1863 2316 
Q 1603 2316 1309 2248 
Q 1016 2181 678 2041 
L 678 4666 
z
" id="DejaVuSans-Bold-35" transform="scale(0.015625)"/>
      <path d="M 2981 2516 
Q 3453 2394 3698 2092 
Q 3944 1791 3944 1325 
Q 3944 631 3412 270 
Q 2881 -91 1863 -91 
Q 1503 -91 1142 -33 
Q 781 25 428 141 
L 428 1069 
Q 766 900 1098 814 
Q 1431 728 1753 728 
Q 2231 728 2486 893 
Q 2741 1059 2741 1369 
Q 2741 1688 2480 1852 
Q 2219 2016 1709 2016 
L 1228 2016 
L 1228 2791 
L 1734 2791 
Q 2188 2791 2409 2933 
Q 2631 3075 2631 3366 
Q 2631 3634 2415 3781 
Q 2200 3928 1806 3928 
Q 1516 3928 1219 3862 
Q 922 3797 628 3669 
L 628 4550 
Q 984 4650 1334 4700 
Q 1684 4750 2022 4750 
Q 2931 4750 3382 4451 
Q 3834 4153 3834 3553 
Q 3834 3144 3618 2883 
Q 3403 2622 2981 2516 
z
" id="DejaVuSans-Bold-33" transform="scale(0.015625)"/>
     </defs>
     <use xlink:href="#DejaVuSans-Bold-35"/>
     <use x="69.580078" xlink:href="#DejaVuSans-Bold-33"/>
     <use x="139.160156" xlink:href="#DejaVuSans-Bold-25"/>
    </g>
   </g>
   <g id="text_17">
    <!-- Yes (minor) -->
    <g style="fill:#ff7f0e;" transform="translate(559.423442 318.286847)scale(0.12 -0.12)">
     <use xlink:href="#DejaVuSans-Bold-59"/>
     <use x="63.287109" xlink:href="#DejaVuSans-Bold-65"/>
     <use x="131.109375" xlink:href="#DejaVuSans-Bold-73"/>
     <use x="190.630859" xlink:href="#DejaVuSans-Bold-20"/>
     <use x="225.445312" xlink:href="#DejaVuSans-Bold-28"/>
     <use x="271.148438" xlink:href="#DejaVuSans-Bold-6d"/>
     <use x="375.347656" xlink:href="#DejaVuSans-Bold-69"/>
     <use x="409.625" xlink:href="#DejaVuSans-Bold-6e"/>
     <use x="480.816406" xlink:href="#DejaVuSans-Bold-6f"/>
     <use x="549.517578" xlink:href="#DejaVuSans-Bold-72"/>
     <use x="598.833984" xlink:href="#DejaVuSans-Bold-29"/>
    </g>
   </g>
   <g id="text_18">
    <!-- 37% -->
    <g style="fill:#ffffff;" transform="translate(543.446395 284.160593)scale(0.12 -0.12)">
     <defs>
      <path d="M 428 4666 
L 3944 4666 
L 3944 3988 
L 2125 0 
L 953 0 
L 2675 3781 
L 428 3781 
L 428 4666 
z
" id="DejaVuSans-Bold-37" transform="scale(0.015625)"/>
     </defs>
     <use xlink:href="#DejaVuSans-Bold-33"/>
     <use x="69.580078" xlink:href="#DejaVuSans-Bold-37"/>
     <use x="139.160156" xlink:href="#DejaVuSans-Bold-25"/>
    </g>
   </g>
   <g id="text_19">
    <!-- G &amp; G -->
    <g style="fill:#404050;" transform="translate(527.82125 186.5185)scale(0.16 -0.16)">
     <defs>
      <path d="M 2497 3097 
L 3775 1691 
Q 3941 1909 4027 2181 
Q 4113 2453 4128 2797 
L 5100 2797 
Q 5053 2228 4879 1784 
Q 4706 1341 4397 1006 
L 5313 0 
L 3988 0 
L 3681 341 
Q 3353 122 2990 15 
Q 2628 -91 2222 -91 
Q 1400 -91 892 342 
Q 384 775 384 1459 
Q 384 1916 607 2267 
Q 831 2619 1338 2950 
Q 1206 3116 1143 3281 
Q 1081 3447 1081 3628 
Q 1081 4138 1478 4444 
Q 1875 4750 2534 4750 
Q 2819 4750 3126 4704 
Q 3434 4659 3769 4569 
L 3769 3700 
Q 3475 3850 3212 3922 
Q 2950 3994 2700 3994 
Q 2459 3994 2326 3901 
Q 2194 3809 2194 3641 
Q 2194 3534 2270 3398 
Q 2347 3263 2497 3097 
z
M 1875 2322 
Q 1672 2175 1569 1989 
Q 1466 1803 1466 1581 
Q 1466 1222 1731 969 
Q 1997 716 2369 716 
Q 2578 716 2759 780 
Q 2941 844 3097 972 
L 1875 2322 
z
" id="DejaVuSans-Bold-26" transform="scale(0.015625)"/>
     </defs>
     <use xlink:href="#DejaVuSans-Bold-47"/>
     <use x="82.080078" xlink:href="#DejaVuSans-Bold-20"/>
     <use x="116.894531" xlink:href="#DejaVuSans-Bold-26"/>
     <use x="204.101562" xlink:href="#DejaVuSans-Bold-20"/>
     <use x="238.916016" xlink:href="#DejaVuSans-Bold-47"/>
    </g>
   </g>
   <g id="text_20">
    <!--  -->
    <g style="fill:#404050;" transform="translate(553.5 179.719875)scale(0.12 -0.12)"/>
    <!--  -->
    <g style="fill:#404050;" transform="translate(553.5 193.15725)scale(0.12 -0.12)"/>
    <!-- 107 respondents -->
    <g style="fill:#404050;" transform="translate(502.9275 206.594625)scale(0.12 -0.12)">
     <defs>
      <path d="M 2034 4250 
Q 1547 4250 1301 3770 
Q 1056 3291 1056 2328 
Q 1056 1369 1301 889 
Q 1547 409 2034 409 
Q 2525 409 2770 889 
Q 3016 1369 3016 2328 
Q 3016 3291 2770 3770 
Q 2525 4250 2034 4250 
z
M 2034 4750 
Q 2819 4750 3233 4129 
Q 3647 3509 3647 2328 
Q 3647 1150 3233 529 
Q 2819 -91 2034 -91 
Q 1250 -91 836 529 
Q 422 1150 422 2328 
Q 422 3509 836 4129 
Q 1250 4750 2034 4750 
z
" id="DejaVuSans-30" transform="scale(0.015625)"/>
      <path d="M 525 4666 
L 3525 4666 
L 3525 4397 
L 1831 0 
L 1172 0 
L 2766 4134 
L 525 4134 
L 525 4666 
z
" id="DejaVuSans-37" transform="scale(0.015625)"/>
     </defs>
     <use xlink:href="#DejaVuSans-31"/>
     <use x="63.623047" xlink:href="#DejaVuSans-30"/>
     <use x="127.246094" xlink:href="#DejaVuSans-37"/>
     <use x="190.869141" xlink:href="#DejaVuSans-20"/>
     <use x="222.65625" xlink:href="#DejaVuSans-72"/>
     <use x="261.519531" xlink:href="#DejaVuSans-65"/>
     <use x="323.042969" xlink:href="#DejaVuSans-73"/>
     <use x="375.142578" xlink:href="#DejaVuSans-70"/>
     <use x="438.619141" xlink:href="#DejaVuSans-6f"/>
     <use x="499.800781" xlink:href="#DejaVuSans-6e"/>
     <use x="563.179688" xlink:href="#DejaVuSans-64"/>
     <use x="626.65625" xlink:href="#DejaVuSans-65"/>
     <use x="688.179688" xlink:href="#DejaVuSans-6e"/>
     <use x="751.558594" xlink:href="#DejaVuSans-74"/>
     <use x="790.767578" xlink:href="#DejaVuSans-73"/>
    </g>
   </g>
  </g>
  <g id="axes_3">
   <g id="patch_10">
    <path d="M 943.728937 224.356628 
C 945.01997 220.809544 946.110943 217.192808 946.996711 213.523477 
C 947.882479 209.854147 948.561646 206.138001 949.03101 202.392568 
L 900.17782 196.27047 
C 899.937483 198.188319 899.589715 200.091171 899.136158 201.970051 
C 898.6826 203.848932 898.123968 205.700882 897.462894 207.517166 
L 943.728937 224.356628 
z
" style="fill:#2ca02c;stroke:#ffffff;stroke-linejoin:miter;stroke-width:3;"/>
   </g>
   <g id="patch_11">
    <path d="M 949.03101 202.392568 
C 949.656955 197.39764 949.90823 192.362865 949.782729 187.330434 
C 949.657228 182.298003 949.155303 177.282011 948.281158 172.324493 
L 899.793859 180.874113 
C 900.241465 183.41261 900.498476 185.981048 900.562738 188.557904 
C 900.627001 191.134761 900.498336 193.712817 900.17782 196.27047 
L 949.03101 202.392568 
z
" style="fill:#1f77b4;stroke:#ffffff;stroke-linejoin:miter;stroke-width:3;"/>
   </g>
   <g id="patch_12">
    <path d="M 948.281158 172.324493 
C 945.593693 157.083119 939.435304 142.662418 930.283902 130.181481 
C 921.1325 117.700543 909.231096 107.490795 895.503276 100.344544 
C 881.775455 93.198292 866.585755 89.305304 851.112941 88.967685 
C 835.640126 88.630067 820.295073 91.856784 806.268603 98.397433 
C 792.242133 104.938083 779.906713 114.618981 770.21961 126.68886 
C 760.532506 138.75874 753.750956 152.89709 750.401227 168.006732 
C 747.051499 183.116374 747.222544 198.796077 750.901087 213.82905 
C 754.579631 228.862023 761.667992 242.849071 771.616091 254.704757 
L 809.332518 223.056924 
C 804.238594 216.986221 800.608999 209.824153 798.725401 202.12652 
C 796.841803 194.428887 796.75422 186.400095 798.469448 178.663203 
C 800.184676 170.926312 803.657169 163.68677 808.61745 157.506389 
C 813.577731 151.326008 819.894082 146.368904 827.076335 143.019765 
C 834.258589 139.670625 842.116023 138.018385 850.038877 138.191263 
C 857.961731 138.36414 865.739616 140.357545 872.768946 144.016783 
C 879.798276 147.67602 885.892389 152.903921 890.578365 159.294785 
C 895.26434 165.685649 898.417742 173.069768 899.793859 180.874113 
L 948.281158 172.324493 
z
" style="fill:#d62728;stroke:#ffffff;stroke-linejoin:miter;stroke-width:3;"/>
   </g>
   <g id="patch_13">
    <path d="M 771.616091 254.704757 
C 783.000333 268.271972 797.758477 278.605738 814.401128 284.663169 
C 831.043778 290.7206 848.991588 292.290832 866.433262 289.215395 
C 883.874936 286.139959 900.203311 278.525914 913.770525 267.141671 
C 927.33774 255.757428 937.671505 240.999284 943.728935 224.356633 
L 897.462893 207.517168 
C 894.361186 216.039037 889.069782 223.595944 882.122691 229.425245 
C 875.175599 235.254547 866.814655 239.153318 857.883647 240.728095 
C 848.952638 242.302872 839.762463 241.498835 831.240594 238.397128 
C 822.718725 235.29542 815.161819 230.004016 809.332518 223.056924 
L 771.616091 254.704757 
z
" style="fill:#ff7f0e;stroke:#ffffff;stroke-linejoin:miter;stroke-width:3;"/>
   </g>
   <g id="matplotlib.axis_5"/>
   <g id="matplotlib.axis_6"/>
   <g id="text_21">
    <!-- No -->
    <g style="fill:#2ca02c;" transform="translate(956.805205 219.202475)scale(0.12 -0.12)">
     <use xlink:href="#DejaVuSans-Bold-4e"/>
     <use x="83.691406" xlink:href="#DejaVuSans-Bold-6f"/>
    </g>
   </g>
   <g id="text_22">
    <!-- 4% -->
    <g style="fill:#ffffff;" transform="translate(917.192847 212.099232)scale(0.12 -0.12)">
     <use xlink:href="#DejaVuSans-Bold-34"/>
     <use x="69.580078" xlink:href="#DejaVuSans-Bold-25"/>
    </g>
   </g>
   <g id="text_23">
    <!-- Unsure -->
    <g style="fill:#1f77b4;" transform="translate(959.869826 190.390127)scale(0.12 -0.12)">
     <use xlink:href="#DejaVuSans-Bold-55"/>
     <use x="81.201172" xlink:href="#DejaVuSans-Bold-6e"/>
     <use x="152.392578" xlink:href="#DejaVuSans-Bold-73"/>
     <use x="211.914062" xlink:href="#DejaVuSans-Bold-75"/>
     <use x="283.105469" xlink:href="#DejaVuSans-Bold-72"/>
     <use x="332.421875" xlink:href="#DejaVuSans-Bold-65"/>
    </g>
   </g>
   <g id="text_24">
    <!-- 5% -->
    <g style="fill:#ffffff;" transform="translate(919.421661 191.144797)scale(0.12 -0.12)">
     <use xlink:href="#DejaVuSans-Bold-35"/>
     <use x="69.580078" xlink:href="#DejaVuSans-Bold-25"/>
    </g>
   </g>
   <g id="text_25">
    <!-- Yes (major) -->
    <g style="fill:#d62728;" transform="translate(725.104912 92.516952)scale(0.12 -0.12)">
     <use xlink:href="#DejaVuSans-Bold-59"/>
     <use x="63.287109" xlink:href="#DejaVuSans-Bold-65"/>
     <use x="131.109375" xlink:href="#DejaVuSans-Bold-73"/>
     <use x="190.630859" xlink:href="#DejaVuSans-Bold-20"/>
     <use x="225.445312" xlink:href="#DejaVuSans-Bold-28"/>
     <use x="271.148438" xlink:href="#DejaVuSans-Bold-6d"/>
     <use x="375.347656" xlink:href="#DejaVuSans-Bold-61"/>
     <use x="442.828125" xlink:href="#DejaVuSans-Bold-6a"/>
     <use x="477.105469" xlink:href="#DejaVuSans-Bold-6f"/>
     <use x="545.806641" xlink:href="#DejaVuSans-Bold-72"/>
     <use x="595.123047" xlink:href="#DejaVuSans-Bold-29"/>
    </g>
   </g>
   <g id="text_26">
    <!-- 58% -->
    <g style="fill:#ffffff;" transform="translate(800.435673 119.998397)scale(0.12 -0.12)">
     <defs>
      <path d="M 2228 2088 
Q 1891 2088 1709 1903 
Q 1528 1719 1528 1375 
Q 1528 1031 1709 848 
Q 1891 666 2228 666 
Q 2563 666 2741 848 
Q 2919 1031 2919 1375 
Q 2919 1722 2741 1905 
Q 2563 2088 2228 2088 
z
M 1350 2484 
Q 925 2613 709 2878 
Q 494 3144 494 3541 
Q 494 4131 934 4440 
Q 1375 4750 2228 4750 
Q 3075 4750 3515 4442 
Q 3956 4134 3956 3541 
Q 3956 3144 3739 2878 
Q 3522 2613 3097 2484 
Q 3572 2353 3814 2058 
Q 4056 1763 4056 1313 
Q 4056 619 3595 264 
Q 3134 -91 2228 -91 
Q 1319 -91 855 264 
Q 391 619 391 1313 
Q 391 1763 633 2058 
Q 875 2353 1350 2484 
z
M 1631 3419 
Q 1631 3141 1786 2991 
Q 1941 2841 2228 2841 
Q 2509 2841 2662 2991 
Q 2816 3141 2816 3419 
Q 2816 3697 2662 3845 
Q 2509 3994 2228 3994 
Q 1941 3994 1786 3844 
Q 1631 3694 1631 3419 
z
" id="DejaVuSans-Bold-38" transform="scale(0.015625)"/>
     </defs>
     <use xlink:href="#DejaVuSans-Bold-35"/>
     <use x="69.580078" xlink:href="#DejaVuSans-Bold-38"/>
     <use x="139.160156" xlink:href="#DejaVuSans-Bold-25"/>
    </g>
   </g>
   <g id="text_27">
    <!-- Yes (minor) -->
    <g style="fill:#ff7f0e;" transform="translate(868.185412 302.463585)scale(0.12 -0.12)">
     <use xlink:href="#DejaVuSans-Bold-59"/>
     <use x="63.287109" xlink:href="#DejaVuSans-Bold-65"/>
     <use x="131.109375" xlink:href="#DejaVuSans-Bold-73"/>
     <use x="190.630859" xlink:href="#DejaVuSans-Bold-20"/>
     <use x="225.445312" xlink:href="#DejaVuSans-Bold-28"/>
     <use x="271.148438" xlink:href="#DejaVuSans-Bold-6d"/>
     <use x="375.347656" xlink:href="#DejaVuSans-Bold-69"/>
     <use x="409.625" xlink:href="#DejaVuSans-Bold-6e"/>
     <use x="480.816406" xlink:href="#DejaVuSans-Bold-6f"/>
     <use x="549.517578" xlink:href="#DejaVuSans-Bold-72"/>
     <use x="598.833984" xlink:href="#DejaVuSans-Bold-29"/>
    </g>
   </g>
   <g id="text_28">
    <!-- 33% -->
    <g style="fill:#ffffff;" transform="translate(848.5674 272.652766)scale(0.12 -0.12)">
     <use xlink:href="#DejaVuSans-Bold-33"/>
     <use x="69.580078" xlink:href="#DejaVuSans-Bold-33"/>
     <use x="139.160156" xlink:href="#DejaVuSans-Bold-25"/>
    </g>
   </g>
   <g id="text_29">
    <!-- Geophysics -->
    <g style="fill:#404050;" transform="translate(797.779265 186.3935)scale(0.16 -0.16)">
     <defs>
      <path d="M 1656 506 
L 1656 -1331 
L 538 -1331 
L 538 3500 
L 1656 3500 
L 1656 2988 
Q 1888 3294 2169 3439 
Q 2450 3584 2816 3584 
Q 3463 3584 3878 3070 
Q 4294 2556 4294 1747 
Q 4294 938 3878 423 
Q 3463 -91 2816 -91 
Q 2450 -91 2169 54 
Q 1888 200 1656 506 
z
M 2400 2772 
Q 2041 2772 1848 2508 
Q 1656 2244 1656 1747 
Q 1656 1250 1848 986 
Q 2041 722 2400 722 
Q 2759 722 2948 984 
Q 3138 1247 3138 1747 
Q 3138 2247 2948 2509 
Q 2759 2772 2400 2772 
z
" id="DejaVuSans-Bold-70" transform="scale(0.015625)"/>
      <path d="M 4056 2131 
L 4056 0 
L 2931 0 
L 2931 347 
L 2931 1625 
Q 2931 2084 2911 2256 
Q 2891 2428 2841 2509 
Q 2775 2619 2662 2680 
Q 2550 2741 2406 2741 
Q 2056 2741 1856 2470 
Q 1656 2200 1656 1722 
L 1656 0 
L 538 0 
L 538 4863 
L 1656 4863 
L 1656 2988 
Q 1909 3294 2193 3439 
Q 2478 3584 2822 3584 
Q 3428 3584 3742 3212 
Q 4056 2841 4056 2131 
z
" id="DejaVuSans-Bold-68" transform="scale(0.015625)"/>
      <path d="M 3366 3391 
L 3366 2478 
Q 3138 2634 2908 2709 
Q 2678 2784 2431 2784 
Q 1963 2784 1702 2511 
Q 1441 2238 1441 1747 
Q 1441 1256 1702 982 
Q 1963 709 2431 709 
Q 2694 709 2930 787 
Q 3166 866 3366 1019 
L 3366 103 
Q 3103 6 2833 -42 
Q 2563 -91 2291 -91 
Q 1344 -91 809 395 
Q 275 881 275 1747 
Q 275 2613 809 3098 
Q 1344 3584 2291 3584 
Q 2566 3584 2833 3536 
Q 3100 3488 3366 3391 
z
" id="DejaVuSans-Bold-63" transform="scale(0.015625)"/>
     </defs>
     <use xlink:href="#DejaVuSans-Bold-47"/>
     <use x="82.080078" xlink:href="#DejaVuSans-Bold-65"/>
     <use x="149.902344" xlink:href="#DejaVuSans-Bold-6f"/>
     <use x="218.603516" xlink:href="#DejaVuSans-Bold-70"/>
     <use x="290.185547" xlink:href="#DejaVuSans-Bold-68"/>
     <use x="361.376953" xlink:href="#DejaVuSans-Bold-79"/>
     <use x="426.5625" xlink:href="#DejaVuSans-Bold-73"/>
     <use x="486.083984" xlink:href="#DejaVuSans-Bold-69"/>
     <use x="520.361328" xlink:href="#DejaVuSans-Bold-63"/>
     <use x="579.638672" xlink:href="#DejaVuSans-Bold-73"/>
    </g>
   </g>
   <g id="text_30">
    <!--  -->
    <g style="fill:#404050;" transform="translate(848.911765 179.719875)scale(0.12 -0.12)"/>
    <!--  -->
    <g style="fill:#404050;" transform="translate(848.911765 193.15725)scale(0.12 -0.12)"/>
    <!-- 84 respondents -->
    <g style="fill:#404050;" transform="translate(802.156765 206.594625)scale(0.12 -0.12)">
     <defs>
      <path d="M 2034 2216 
Q 1584 2216 1326 1975 
Q 1069 1734 1069 1313 
Q 1069 891 1326 650 
Q 1584 409 2034 409 
Q 2484 409 2743 651 
Q 3003 894 3003 1313 
Q 3003 1734 2745 1975 
Q 2488 2216 2034 2216 
z
M 1403 2484 
Q 997 2584 770 2862 
Q 544 3141 544 3541 
Q 544 4100 942 4425 
Q 1341 4750 2034 4750 
Q 2731 4750 3128 4425 
Q 3525 4100 3525 3541 
Q 3525 3141 3298 2862 
Q 3072 2584 2669 2484 
Q 3125 2378 3379 2068 
Q 3634 1759 3634 1313 
Q 3634 634 3220 271 
Q 2806 -91 2034 -91 
Q 1263 -91 848 271 
Q 434 634 434 1313 
Q 434 1759 690 2068 
Q 947 2378 1403 2484 
z
M 1172 3481 
Q 1172 3119 1398 2916 
Q 1625 2713 2034 2713 
Q 2441 2713 2670 2916 
Q 2900 3119 2900 3481 
Q 2900 3844 2670 4047 
Q 2441 4250 2034 4250 
Q 1625 4250 1398 4047 
Q 1172 3844 1172 3481 
z
" id="DejaVuSans-38" transform="scale(0.015625)"/>
     </defs>
     <use xlink:href="#DejaVuSans-38"/>
     <use x="63.623047" xlink:href="#DejaVuSans-34"/>
     <use x="127.246094" xlink:href="#DejaVuSans-20"/>
     <use x="159.033203" xlink:href="#DejaVuSans-72"/>
     <use x="197.896484" xlink:href="#DejaVuSans-65"/>
     <use x="259.419922" xlink:href="#DejaVuSans-73"/>
     <use x="311.519531" xlink:href="#DejaVuSans-70"/>
     <use x="374.996094" xlink:href="#DejaVuSans-6f"/>
     <use x="436.177734" xlink:href="#DejaVuSans-6e"/>
     <use x="499.556641" xlink:href="#DejaVuSans-64"/>
     <use x="563.033203" xlink:href="#DejaVuSans-65"/>
     <use x="624.556641" xlink:href="#DejaVuSans-6e"/>
     <use x="687.935547" xlink:href="#DejaVuSans-74"/>
     <use x="727.144531" xlink:href="#DejaVuSans-73"/>
    </g>
   </g>
  </g>
  <g id="text_31">
   <!-- Do you think there is a reproducibility problem in subsurface geoscience? -->
   <g style="fill:#404050;" transform="translate(206.38 19.7895)scale(0.16 -0.16)">
    <defs>
     <path d="M 1791 3756 
L 1791 909 
L 2222 909 
Q 2959 909 3348 1275 
Q 3738 1641 3738 2338 
Q 3738 3031 3350 3393 
Q 2963 3756 2222 3756 
L 1791 3756 
z
M 588 4666 
L 1856 4666 
Q 2919 4666 3439 4514 
Q 3959 4363 4331 4000 
Q 4659 3684 4818 3271 
Q 4978 2859 4978 2338 
Q 4978 1809 4818 1395 
Q 4659 981 4331 666 
Q 3956 303 3431 151 
Q 2906 0 1856 0 
L 588 0 
L 588 4666 
z
" id="DejaVuSans-Bold-44" transform="scale(0.015625)"/>
     <path d="M 1759 4494 
L 1759 3500 
L 2913 3500 
L 2913 2700 
L 1759 2700 
L 1759 1216 
Q 1759 972 1856 886 
Q 1953 800 2241 800 
L 2816 800 
L 2816 0 
L 1856 0 
Q 1194 0 917 276 
Q 641 553 641 1216 
L 641 2700 
L 84 2700 
L 84 3500 
L 641 3500 
L 641 4494 
L 1759 4494 
z
" id="DejaVuSans-Bold-74" transform="scale(0.015625)"/>
     <path d="M 538 4863 
L 1656 4863 
L 1656 2216 
L 2944 3500 
L 4244 3500 
L 2534 1894 
L 4378 0 
L 3022 0 
L 1656 1459 
L 1656 0 
L 538 0 
L 538 4863 
z
" id="DejaVuSans-Bold-6b" transform="scale(0.015625)"/>
     <path d="M 2919 2988 
L 2919 4863 
L 4044 4863 
L 4044 0 
L 2919 0 
L 2919 506 
Q 2688 197 2409 53 
Q 2131 -91 1766 -91 
Q 1119 -91 703 423 
Q 288 938 288 1747 
Q 288 2556 703 3070 
Q 1119 3584 1766 3584 
Q 2128 3584 2408 3439 
Q 2688 3294 2919 2988 
z
M 2181 722 
Q 2541 722 2730 984 
Q 2919 1247 2919 1747 
Q 2919 2247 2730 2509 
Q 2541 2772 2181 2772 
Q 1825 2772 1636 2509 
Q 1447 2247 1447 1747 
Q 1447 1247 1636 984 
Q 1825 722 2181 722 
z
" id="DejaVuSans-Bold-64" transform="scale(0.015625)"/>
     <path d="M 2400 722 
Q 2759 722 2948 984 
Q 3138 1247 3138 1747 
Q 3138 2247 2948 2509 
Q 2759 2772 2400 2772 
Q 2041 2772 1848 2508 
Q 1656 2244 1656 1747 
Q 1656 1250 1848 986 
Q 2041 722 2400 722 
z
M 1656 2988 
Q 1888 3294 2169 3439 
Q 2450 3584 2816 3584 
Q 3463 3584 3878 3070 
Q 4294 2556 4294 1747 
Q 4294 938 3878 423 
Q 3463 -91 2816 -91 
Q 2450 -91 2169 54 
Q 1888 200 1656 506 
L 1656 0 
L 538 0 
L 538 4863 
L 1656 4863 
L 1656 2988 
z
" id="DejaVuSans-Bold-62" transform="scale(0.015625)"/>
     <path d="M 2841 4863 
L 2841 4128 
L 2222 4128 
Q 1984 4128 1890 4042 
Q 1797 3956 1797 3744 
L 1797 3500 
L 2753 3500 
L 2753 2700 
L 1797 2700 
L 1797 0 
L 678 0 
L 678 2700 
L 122 2700 
L 122 3500 
L 678 3500 
L 678 3744 
Q 678 4316 997 4589 
Q 1316 4863 1984 4863 
L 2841 4863 
z
" id="DejaVuSans-Bold-66" transform="scale(0.015625)"/>
     <path d="M 2216 1575 
L 1088 1575 
L 1088 1728 
Q 1088 1984 1191 2182 
Q 1294 2381 1625 2688 
L 1825 2869 
Q 2003 3031 2086 3175 
Q 2169 3319 2169 3463 
Q 2169 3681 2019 3804 
Q 1869 3928 1600 3928 
Q 1347 3928 1053 3823 
Q 759 3719 441 3513 
L 441 4494 
Q 819 4625 1131 4687 
Q 1444 4750 1734 4750 
Q 2497 4750 2897 4439 
Q 3297 4128 3297 3531 
Q 3297 3225 3175 2983 
Q 3053 2741 2759 2463 
L 2559 2284 
Q 2347 2091 2281 1973 
Q 2216 1856 2216 1716 
L 2216 1575 
z
M 1088 1113 
L 2216 1113 
L 2216 0 
L 1088 0 
L 1088 1113 
z
" id="DejaVuSans-Bold-3f" transform="scale(0.015625)"/>
    </defs>
    <use xlink:href="#DejaVuSans-Bold-44"/>
    <use x="83.007812" xlink:href="#DejaVuSans-Bold-6f"/>
    <use x="151.708984" xlink:href="#DejaVuSans-Bold-20"/>
    <use x="186.523438" xlink:href="#DejaVuSans-Bold-79"/>
    <use x="251.708984" xlink:href="#DejaVuSans-Bold-6f"/>
    <use x="320.410156" xlink:href="#DejaVuSans-Bold-75"/>
    <use x="391.601562" xlink:href="#DejaVuSans-Bold-20"/>
    <use x="426.416016" xlink:href="#DejaVuSans-Bold-74"/>
    <use x="474.21875" xlink:href="#DejaVuSans-Bold-68"/>
    <use x="545.410156" xlink:href="#DejaVuSans-Bold-69"/>
    <use x="579.6875" xlink:href="#DejaVuSans-Bold-6e"/>
    <use x="650.878906" xlink:href="#DejaVuSans-Bold-6b"/>
    <use x="717.382812" xlink:href="#DejaVuSans-Bold-20"/>
    <use x="752.197266" xlink:href="#DejaVuSans-Bold-74"/>
    <use x="800" xlink:href="#DejaVuSans-Bold-68"/>
    <use x="871.191406" xlink:href="#DejaVuSans-Bold-65"/>
    <use x="939.013672" xlink:href="#DejaVuSans-Bold-72"/>
    <use x="988.330078" xlink:href="#DejaVuSans-Bold-65"/>
    <use x="1056.152344" xlink:href="#DejaVuSans-Bold-20"/>
    <use x="1090.966797" xlink:href="#DejaVuSans-Bold-69"/>
    <use x="1125.244141" xlink:href="#DejaVuSans-Bold-73"/>
    <use x="1184.765625" xlink:href="#DejaVuSans-Bold-20"/>
    <use x="1219.580078" xlink:href="#DejaVuSans-Bold-61"/>
    <use x="1287.060547" xlink:href="#DejaVuSans-Bold-20"/>
    <use x="1321.875" xlink:href="#DejaVuSans-Bold-72"/>
    <use x="1371.191406" xlink:href="#DejaVuSans-Bold-65"/>
    <use x="1439.013672" xlink:href="#DejaVuSans-Bold-70"/>
    <use x="1510.595703" xlink:href="#DejaVuSans-Bold-72"/>
    <use x="1559.912109" xlink:href="#DejaVuSans-Bold-6f"/>
    <use x="1628.613281" xlink:href="#DejaVuSans-Bold-64"/>
    <use x="1700.195312" xlink:href="#DejaVuSans-Bold-75"/>
    <use x="1771.386719" xlink:href="#DejaVuSans-Bold-63"/>
    <use x="1830.664062" xlink:href="#DejaVuSans-Bold-69"/>
    <use x="1864.941406" xlink:href="#DejaVuSans-Bold-62"/>
    <use x="1936.523438" xlink:href="#DejaVuSans-Bold-69"/>
    <use x="1970.800781" xlink:href="#DejaVuSans-Bold-6c"/>
    <use x="2005.078125" xlink:href="#DejaVuSans-Bold-69"/>
    <use x="2039.355469" xlink:href="#DejaVuSans-Bold-74"/>
    <use x="2087.158203" xlink:href="#DejaVuSans-Bold-79"/>
    <use x="2152.34375" xlink:href="#DejaVuSans-Bold-20"/>
    <use x="2187.158203" xlink:href="#DejaVuSans-Bold-70"/>
    <use x="2258.740234" xlink:href="#DejaVuSans-Bold-72"/>
    <use x="2308.056641" xlink:href="#DejaVuSans-Bold-6f"/>
    <use x="2376.757812" xlink:href="#DejaVuSans-Bold-62"/>
    <use x="2448.339844" xlink:href="#DejaVuSans-Bold-6c"/>
    <use x="2482.617188" xlink:href="#DejaVuSans-Bold-65"/>
    <use x="2550.439453" xlink:href="#DejaVuSans-Bold-6d"/>
    <use x="2654.638672" xlink:href="#DejaVuSans-Bold-20"/>
    <use x="2689.453125" xlink:href="#DejaVuSans-Bold-69"/>
    <use x="2723.730469" xlink:href="#DejaVuSans-Bold-6e"/>
    <use x="2794.921875" xlink:href="#DejaVuSans-Bold-20"/>
    <use x="2829.736328" xlink:href="#DejaVuSans-Bold-73"/>
    <use x="2889.257812" xlink:href="#DejaVuSans-Bold-75"/>
    <use x="2960.449219" xlink:href="#DejaVuSans-Bold-62"/>
    <use x="3032.03125" xlink:href="#DejaVuSans-Bold-73"/>
    <use x="3091.552734" xlink:href="#DejaVuSans-Bold-75"/>
    <use x="3162.744141" xlink:href="#DejaVuSans-Bold-72"/>
    <use x="3212.060547" xlink:href="#DejaVuSans-Bold-66"/>
    <use x="3255.566406" xlink:href="#DejaVuSans-Bold-61"/>
    <use x="3323.046875" xlink:href="#DejaVuSans-Bold-63"/>
    <use x="3382.324219" xlink:href="#DejaVuSans-Bold-65"/>
    <use x="3450.146484" xlink:href="#DejaVuSans-Bold-20"/>
    <use x="3484.960938" xlink:href="#DejaVuSans-Bold-67"/>
    <use x="3556.542969" xlink:href="#DejaVuSans-Bold-65"/>
    <use x="3624.365234" xlink:href="#DejaVuSans-Bold-6f"/>
    <use x="3693.066406" xlink:href="#DejaVuSans-Bold-73"/>
    <use x="3752.587891" xlink:href="#DejaVuSans-Bold-63"/>
    <use x="3811.865234" xlink:href="#DejaVuSans-Bold-69"/>
    <use x="3846.142578" xlink:href="#DejaVuSans-Bold-65"/>
    <use x="3913.964844" xlink:href="#DejaVuSans-Bold-6e"/>
    <use x="3985.15625" xlink:href="#DejaVuSans-Bold-63"/>
    <use x="4044.433594" xlink:href="#DejaVuSans-Bold-65"/>
    <use x="4112.255859" xlink:href="#DejaVuSans-Bold-3f"/>
   </g>
  </g>
 </g>
</svg>
