<?xml version="1.0" encoding="utf-8" standalone="no"?>
<!DOCTYPE svg PUBLIC "-//W3C//DTD SVG 1.1//EN"
  "http://www.w3.org/Graphics/SVG/1.1/DTD/svg11.dtd">
<svg height="381.6pt" version="1.1" viewBox="0 0 720 381.6" width="720pt" xmlns="http://www.w3.org/2000/svg" xmlns:xlink="http://www.w3.org/1999/xlink">
 <metadata>
  <rdf:RDF xmlns:cc="http://creativecommons.org/ns#" xmlns:dc="http://purl.org/dc/elements/1.1/" xmlns:rdf="http://www.w3.org/1999/02/22-rdf-syntax-ns#">
   <cc:Work>
    <dc:type rdf:resource="http://purl.org/dc/dcmitype/StillImage"/>
    <dc:date>2021-10-07T08:59:01.117634</dc:date>
    <dc:format>image/svg+xml</dc:format>
    <dc:creator>
     <cc:Agent>
      <dc:title>Matplotlib v3.4.2, https://matplotlib.org/</dc:title>
     </cc:Agent>
    </dc:creator>
   </cc:Work>
  </rdf:RDF>
 </metadata>
 <defs>
  <style type="text/css">*{stroke-linecap:butt;stroke-linejoin:round;}</style>
 </defs>
 <g id="figure_1">
  <g id="patch_1">
   <path d="M 0 381.6 
L 720 381.6 
L 720 0 
L 0 0 
z
" style="fill:none;"/>
  </g>
  <g id="axes_1">
   <g id="patch_2">
    <path d="M 325.169089 229.282505 
C 327.568688 222.689662 329.361553 215.891543 330.525363 208.972787 
C 331.689173 202.05403 332.219079 195.043467 332.108482 188.028382 
L 281.387512 188.828027 
C 281.449453 192.756887 281.152675 196.683213 280.500873 200.558122 
C 279.849071 204.433032 278.844961 208.240377 277.501045 211.932756 
L 325.169089 229.282505 
z
" style="fill:#2ca02c;stroke:#ffffff;stroke-linejoin:miter;stroke-width:3;"/>
   </g>
   <g id="patch_3">
    <path d="M 332.108482 188.028382 
C 331.985577 180.232579 331.072272 172.469305 329.382599 164.857823 
C 327.692926 157.246341 325.235581 149.825828 322.048316 142.710282 
L 275.753229 163.447233 
C 277.538285 167.432356 278.914542 171.588279 279.860858 175.851155 
C 280.807174 180.114032 281.318678 184.46192 281.387512 188.828027 
L 332.108482 188.028382 
z
" style="fill:#1f77b4;stroke:#ffffff;stroke-linejoin:miter;stroke-width:3;"/>
   </g>
   <g id="patch_4">
    <path d="M 322.048316 142.710282 
C 315.81832 128.801862 306.892249 116.265592 295.787482 105.828105 
C 284.682714 95.390618 271.61803 87.257547 257.350691 81.900307 
C 243.083352 76.543066 227.894445 74.0672 212.664357 74.616218 
C 197.434269 75.165235 182.463055 78.728318 168.618484 85.098942 
C 154.773913 91.469566 142.328743 100.522221 132.004327 111.732191 
C 121.679912 122.942162 113.679656 136.088595 108.467276 150.409492 
C 103.254895 164.730389 100.933081 179.943607 101.636411 195.167349 
C 102.339742 210.391091 106.05436 225.325428 112.564958 239.104728 
L 158.430261 217.433777 
C 154.783945 209.716561 152.703541 201.352456 152.309634 192.826268 
C 151.915728 184.300079 153.21608 175.779785 156.135319 167.759243 
C 159.054558 159.7387 163.53517 152.375926 169.317449 146.097685 
C 175.099727 139.819444 182.069752 134.749427 189.823524 131.181504 
C 197.577296 127.61358 205.962054 125.618045 214.491796 125.310563 
C 223.021539 125.003081 231.528218 126.389711 239.518764 129.39008 
C 247.509311 132.390449 254.826301 136.945446 261.045622 142.791051 
C 267.264943 148.636656 272.264066 155.657702 275.753229 163.447233 
L 322.048316 142.710282 
z
" style="fill:#d62728;stroke:#ffffff;stroke-linejoin:miter;stroke-width:3;"/>
   </g>
   <g id="patch_5">
    <path d="M 112.564958 239.104728 
C 122.285004 259.676639 137.880049 276.918447 157.37627 288.647904 
C 176.872491 300.37736 199.41113 306.077813 222.139531 305.027771 
C 244.867932 303.977728 266.784967 296.223442 285.116656 282.746352 
C 303.448346 269.269262 317.387225 250.662999 325.169088 229.282508 
L 277.501045 211.932757 
C 273.142745 223.907087 265.336155 234.327685 255.069334 241.875646 
C 244.802512 249.423607 232.527687 253.766462 219.798449 254.354547 
C 207.069212 254.942633 194.446252 251.750045 183.527225 245.180861 
C 172.608197 238.611678 163.874057 228.955254 158.430261 217.433777 
L 112.564958 239.104728 
z
" style="fill:#ff7f0e;stroke:#ffffff;stroke-linejoin:miter;stroke-width:3;"/>
   </g>
   <g id="matplotlib.axis_1"/>
   <g id="matplotlib.axis_2"/>
   <g id="text_1">
    <!-- No -->
    <g style="fill:#2ca02c;" transform="translate(341.896081 214.196715)scale(0.12 -0.12)">
     <defs>
      <path d="M 588 4666 
L 1931 4666 
L 3628 1466 
L 3628 4666 
L 4769 4666 
L 4769 0 
L 3425 0 
L 1728 3200 
L 1728 0 
L 588 0 
L 588 4666 
z
" id="DejaVuSans-Bold-4e" transform="scale(0.015625)"/>
      <path d="M 2203 2784 
Q 1831 2784 1636 2517 
Q 1441 2250 1441 1747 
Q 1441 1244 1636 976 
Q 1831 709 2203 709 
Q 2569 709 2762 976 
Q 2956 1244 2956 1747 
Q 2956 2250 2762 2517 
Q 2569 2784 2203 2784 
z
M 2203 3584 
Q 3106 3584 3614 3096 
Q 4122 2609 4122 1747 
Q 4122 884 3614 396 
Q 3106 -91 2203 -91 
Q 1297 -91 786 396 
Q 275 884 275 1747 
Q 275 2609 786 3096 
Q 1297 3584 2203 3584 
z
" id="DejaVuSans-Bold-6f" transform="scale(0.015625)"/>
     </defs>
     <use xlink:href="#DejaVuSans-Bold-4e"/>
     <use x="83.691406" xlink:href="#DejaVuSans-Bold-6f"/>
    </g>
   </g>
   <g id="text_2">
    <!-- 6% -->
    <g style="fill:#ffffff;" transform="translate(297.597052 208.458679)scale(0.12 -0.12)">
     <defs>
      <path d="M 2316 2303 
Q 2000 2303 1842 2098 
Q 1684 1894 1684 1484 
Q 1684 1075 1842 870 
Q 2000 666 2316 666 
Q 2634 666 2792 870 
Q 2950 1075 2950 1484 
Q 2950 1894 2792 2098 
Q 2634 2303 2316 2303 
z
M 3803 4544 
L 3803 3681 
Q 3506 3822 3243 3889 
Q 2981 3956 2731 3956 
Q 2194 3956 1894 3657 
Q 1594 3359 1544 2772 
Q 1750 2925 1990 3001 
Q 2231 3078 2516 3078 
Q 3231 3078 3670 2659 
Q 4109 2241 4109 1563 
Q 4109 813 3618 361 
Q 3128 -91 2303 -91 
Q 1394 -91 895 523 
Q 397 1138 397 2266 
Q 397 3422 980 4083 
Q 1563 4744 2578 4744 
Q 2900 4744 3203 4694 
Q 3506 4644 3803 4544 
z
" id="DejaVuSans-Bold-36" transform="scale(0.015625)"/>
      <path d="M 4959 1925 
Q 4738 1925 4616 1733 
Q 4494 1541 4494 1184 
Q 4494 825 4614 633 
Q 4734 441 4959 441 
Q 5184 441 5303 633 
Q 5422 825 5422 1184 
Q 5422 1541 5301 1733 
Q 5181 1925 4959 1925 
z
M 4959 2450 
Q 5541 2450 5875 2112 
Q 6209 1775 6209 1184 
Q 6209 594 5875 251 
Q 5541 -91 4959 -91 
Q 4378 -91 4042 251 
Q 3706 594 3706 1184 
Q 3706 1772 4042 2111 
Q 4378 2450 4959 2450 
z
M 2094 -91 
L 1403 -91 
L 4319 4750 
L 5013 4750 
L 2094 -91 
z
M 1453 4750 
Q 2034 4750 2367 4411 
Q 2700 4072 2700 3481 
Q 2700 2891 2367 2550 
Q 2034 2209 1453 2209 
Q 872 2209 539 2550 
Q 206 2891 206 3481 
Q 206 4072 539 4411 
Q 872 4750 1453 4750 
z
M 1453 4225 
Q 1228 4225 1106 4031 
Q 984 3838 984 3481 
Q 984 3122 1106 2926 
Q 1228 2731 1453 2731 
Q 1678 2731 1798 2926 
Q 1919 3122 1919 3481 
Q 1919 3838 1797 4031 
Q 1675 4225 1453 4225 
z
" id="DejaVuSans-Bold-25" transform="scale(0.015625)"/>
     </defs>
     <use xlink:href="#DejaVuSans-Bold-36"/>
     <use x="69.580078" xlink:href="#DejaVuSans-Bold-25"/>
    </g>
   </g>
   <g id="text_3">
    <!-- Unsure -->
    <g style="fill:#1f77b4;" transform="translate(340.639041 165.670255)scale(0.12 -0.12)">
     <defs>
      <path d="M 588 4666 
L 1791 4666 
L 1791 1869 
Q 1791 1291 1980 1042 
Q 2169 794 2597 794 
Q 3028 794 3217 1042 
Q 3406 1291 3406 1869 
L 3406 4666 
L 4609 4666 
L 4609 1869 
Q 4609 878 4112 393 
Q 3616 -91 2597 -91 
Q 1581 -91 1084 393 
Q 588 878 588 1869 
L 588 4666 
z
" id="DejaVuSans-Bold-55" transform="scale(0.015625)"/>
      <path d="M 4056 2131 
L 4056 0 
L 2931 0 
L 2931 347 
L 2931 1631 
Q 2931 2084 2911 2256 
Q 2891 2428 2841 2509 
Q 2775 2619 2662 2680 
Q 2550 2741 2406 2741 
Q 2056 2741 1856 2470 
Q 1656 2200 1656 1722 
L 1656 0 
L 538 0 
L 538 3500 
L 1656 3500 
L 1656 2988 
Q 1909 3294 2193 3439 
Q 2478 3584 2822 3584 
Q 3428 3584 3742 3212 
Q 4056 2841 4056 2131 
z
" id="DejaVuSans-Bold-6e" transform="scale(0.015625)"/>
      <path d="M 3272 3391 
L 3272 2541 
Q 2913 2691 2578 2766 
Q 2244 2841 1947 2841 
Q 1628 2841 1473 2761 
Q 1319 2681 1319 2516 
Q 1319 2381 1436 2309 
Q 1553 2238 1856 2203 
L 2053 2175 
Q 2913 2066 3209 1816 
Q 3506 1566 3506 1031 
Q 3506 472 3093 190 
Q 2681 -91 1863 -91 
Q 1516 -91 1145 -36 
Q 775 19 384 128 
L 384 978 
Q 719 816 1070 734 
Q 1422 653 1784 653 
Q 2113 653 2278 743 
Q 2444 834 2444 1013 
Q 2444 1163 2330 1236 
Q 2216 1309 1875 1350 
L 1678 1375 
Q 931 1469 631 1722 
Q 331 1975 331 2491 
Q 331 3047 712 3315 
Q 1094 3584 1881 3584 
Q 2191 3584 2531 3537 
Q 2872 3491 3272 3391 
z
" id="DejaVuSans-Bold-73" transform="scale(0.015625)"/>
      <path d="M 500 1363 
L 500 3500 
L 1625 3500 
L 1625 3150 
Q 1625 2866 1622 2436 
Q 1619 2006 1619 1863 
Q 1619 1441 1641 1255 
Q 1663 1069 1716 984 
Q 1784 875 1895 815 
Q 2006 756 2150 756 
Q 2500 756 2700 1025 
Q 2900 1294 2900 1772 
L 2900 3500 
L 4019 3500 
L 4019 0 
L 2900 0 
L 2900 506 
Q 2647 200 2364 54 
Q 2081 -91 1741 -91 
Q 1134 -91 817 281 
Q 500 653 500 1363 
z
" id="DejaVuSans-Bold-75" transform="scale(0.015625)"/>
      <path d="M 3138 2547 
Q 2991 2616 2845 2648 
Q 2700 2681 2553 2681 
Q 2122 2681 1889 2404 
Q 1656 2128 1656 1613 
L 1656 0 
L 538 0 
L 538 3500 
L 1656 3500 
L 1656 2925 
Q 1872 3269 2151 3426 
Q 2431 3584 2822 3584 
Q 2878 3584 2943 3579 
Q 3009 3575 3134 3559 
L 3138 2547 
z
" id="DejaVuSans-Bold-72" transform="scale(0.015625)"/>
      <path d="M 4031 1759 
L 4031 1441 
L 1416 1441 
Q 1456 1047 1700 850 
Q 1944 653 2381 653 
Q 2734 653 3104 758 
Q 3475 863 3866 1075 
L 3866 213 
Q 3469 63 3072 -14 
Q 2675 -91 2278 -91 
Q 1328 -91 801 392 
Q 275 875 275 1747 
Q 275 2603 792 3093 
Q 1309 3584 2216 3584 
Q 3041 3584 3536 3087 
Q 4031 2591 4031 1759 
z
M 2881 2131 
Q 2881 2450 2695 2645 
Q 2509 2841 2209 2841 
Q 1884 2841 1681 2658 
Q 1478 2475 1428 2131 
L 2881 2131 
z
" id="DejaVuSans-Bold-65" transform="scale(0.015625)"/>
     </defs>
     <use xlink:href="#DejaVuSans-Bold-55"/>
     <use x="81.201172" xlink:href="#DejaVuSans-Bold-6e"/>
     <use x="152.392578" xlink:href="#DejaVuSans-Bold-73"/>
     <use x="211.914062" xlink:href="#DejaVuSans-Bold-75"/>
     <use x="283.105469" xlink:href="#DejaVuSans-Bold-72"/>
     <use x="332.421875" xlink:href="#DejaVuSans-Bold-65"/>
    </g>
   </g>
   <g id="text_4">
    <!-- 6% -->
    <g style="fill:#ffffff;" transform="translate(296.682841 173.166708)scale(0.12 -0.12)">
     <use xlink:href="#DejaVuSans-Bold-36"/>
     <use x="69.580078" xlink:href="#DejaVuSans-Bold-25"/>
    </g>
   </g>
   <g id="text_5">
    <!-- Yes (major) -->
    <g style="fill:#d62728;" transform="translate(86.899139 77.888611)scale(0.12 -0.12)">
     <defs>
      <path d="M -63 4666 
L 1253 4666 
L 2316 3003 
L 3378 4666 
L 4697 4666 
L 2919 1966 
L 2919 0 
L 1716 0 
L 1716 1966 
L -63 4666 
z
" id="DejaVuSans-Bold-59" transform="scale(0.015625)"/>
      <path id="DejaVuSans-Bold-20" transform="scale(0.015625)"/>
      <path d="M 2413 -844 
L 1484 -844 
Q 1006 -72 778 623 
Q 550 1319 550 2003 
Q 550 2688 779 3389 
Q 1009 4091 1484 4856 
L 2413 4856 
Q 2013 4116 1813 3408 
Q 1613 2700 1613 2009 
Q 1613 1319 1811 609 
Q 2009 -100 2413 -844 
z
" id="DejaVuSans-Bold-28" transform="scale(0.015625)"/>
      <path d="M 3781 2919 
Q 3994 3244 4286 3414 
Q 4578 3584 4928 3584 
Q 5531 3584 5847 3212 
Q 6163 2841 6163 2131 
L 6163 0 
L 5038 0 
L 5038 1825 
Q 5041 1866 5042 1909 
Q 5044 1953 5044 2034 
Q 5044 2406 4934 2573 
Q 4825 2741 4581 2741 
Q 4263 2741 4089 2478 
Q 3916 2216 3909 1719 
L 3909 0 
L 2784 0 
L 2784 1825 
Q 2784 2406 2684 2573 
Q 2584 2741 2328 2741 
Q 2006 2741 1831 2477 
Q 1656 2213 1656 1722 
L 1656 0 
L 531 0 
L 531 3500 
L 1656 3500 
L 1656 2988 
Q 1863 3284 2130 3434 
Q 2397 3584 2719 3584 
Q 3081 3584 3359 3409 
Q 3638 3234 3781 2919 
z
" id="DejaVuSans-Bold-6d" transform="scale(0.015625)"/>
      <path d="M 2106 1575 
Q 1756 1575 1579 1456 
Q 1403 1338 1403 1106 
Q 1403 894 1545 773 
Q 1688 653 1941 653 
Q 2256 653 2472 879 
Q 2688 1106 2688 1447 
L 2688 1575 
L 2106 1575 
z
M 3816 1997 
L 3816 0 
L 2688 0 
L 2688 519 
Q 2463 200 2181 54 
Q 1900 -91 1497 -91 
Q 953 -91 614 226 
Q 275 544 275 1050 
Q 275 1666 698 1953 
Q 1122 2241 2028 2241 
L 2688 2241 
L 2688 2328 
Q 2688 2594 2478 2717 
Q 2269 2841 1825 2841 
Q 1466 2841 1156 2769 
Q 847 2697 581 2553 
L 581 3406 
Q 941 3494 1303 3539 
Q 1666 3584 2028 3584 
Q 2975 3584 3395 3211 
Q 3816 2838 3816 1997 
z
" id="DejaVuSans-Bold-61" transform="scale(0.015625)"/>
      <path d="M 538 3500 
L 1656 3500 
L 1656 63 
Q 1656 -641 1318 -1011 
Q 981 -1381 341 -1381 
L -213 -1381 
L -213 -647 
L -19 -647 
Q 300 -647 419 -503 
Q 538 -359 538 63 
L 538 3500 
z
M 538 4863 
L 1656 4863 
L 1656 3950 
L 538 3950 
L 538 4863 
z
" id="DejaVuSans-Bold-6a" transform="scale(0.015625)"/>
      <path d="M 513 -844 
Q 913 -100 1113 609 
Q 1313 1319 1313 2009 
Q 1313 2700 1113 3408 
Q 913 4116 513 4856 
L 1441 4856 
Q 1916 4091 2145 3389 
Q 2375 2688 2375 2003 
Q 2375 1319 2147 623 
Q 1919 -72 1441 -844 
L 513 -844 
z
" id="DejaVuSans-Bold-29" transform="scale(0.015625)"/>
     </defs>
     <use xlink:href="#DejaVuSans-Bold-59"/>
     <use x="63.287109" xlink:href="#DejaVuSans-Bold-65"/>
     <use x="131.109375" xlink:href="#DejaVuSans-Bold-73"/>
     <use x="190.630859" xlink:href="#DejaVuSans-Bold-20"/>
     <use x="225.445312" xlink:href="#DejaVuSans-Bold-28"/>
     <use x="271.148438" xlink:href="#DejaVuSans-Bold-6d"/>
     <use x="375.347656" xlink:href="#DejaVuSans-Bold-61"/>
     <use x="442.828125" xlink:href="#DejaVuSans-Bold-6a"/>
     <use x="477.105469" xlink:href="#DejaVuSans-Bold-6f"/>
     <use x="545.806641" xlink:href="#DejaVuSans-Bold-72"/>
     <use x="595.123047" xlink:href="#DejaVuSans-Bold-29"/>
    </g>
   </g>
   <g id="text_6">
    <!-- 50% -->
    <g style="fill:#ffffff;" transform="translate(163.896861 109.359604)scale(0.12 -0.12)">
     <defs>
      <path d="M 678 4666 
L 3669 4666 
L 3669 3781 
L 1638 3781 
L 1638 3059 
Q 1775 3097 1914 3117 
Q 2053 3138 2203 3138 
Q 3056 3138 3531 2711 
Q 4006 2284 4006 1522 
Q 4006 766 3489 337 
Q 2972 -91 2053 -91 
Q 1656 -91 1267 -14 
Q 878 63 494 219 
L 494 1166 
Q 875 947 1217 837 
Q 1559 728 1863 728 
Q 2300 728 2551 942 
Q 2803 1156 2803 1522 
Q 2803 1891 2551 2103 
Q 2300 2316 1863 2316 
Q 1603 2316 1309 2248 
Q 1016 2181 678 2041 
L 678 4666 
z
" id="DejaVuSans-Bold-35" transform="scale(0.015625)"/>
      <path d="M 2944 2338 
Q 2944 3213 2780 3570 
Q 2616 3928 2228 3928 
Q 1841 3928 1675 3570 
Q 1509 3213 1509 2338 
Q 1509 1453 1675 1090 
Q 1841 728 2228 728 
Q 2613 728 2778 1090 
Q 2944 1453 2944 2338 
z
M 4147 2328 
Q 4147 1169 3647 539 
Q 3147 -91 2228 -91 
Q 1306 -91 806 539 
Q 306 1169 306 2328 
Q 306 3491 806 4120 
Q 1306 4750 2228 4750 
Q 3147 4750 3647 4120 
Q 4147 3491 4147 2328 
z
" id="DejaVuSans-Bold-30" transform="scale(0.015625)"/>
     </defs>
     <use xlink:href="#DejaVuSans-Bold-35"/>
     <use x="69.580078" xlink:href="#DejaVuSans-Bold-30"/>
     <use x="139.160156" xlink:href="#DejaVuSans-Bold-25"/>
    </g>
   </g>
   <g id="text_7">
    <!-- Yes (minor) -->
    <g style="fill:#ff7f0e;" transform="translate(222.671666 319.857198)scale(0.12 -0.12)">
     <defs>
      <path d="M 538 3500 
L 1656 3500 
L 1656 0 
L 538 0 
L 538 3500 
z
M 538 4863 
L 1656 4863 
L 1656 3950 
L 538 3950 
L 538 4863 
z
" id="DejaVuSans-Bold-69" transform="scale(0.015625)"/>
     </defs>
     <use xlink:href="#DejaVuSans-Bold-59"/>
     <use x="63.287109" xlink:href="#DejaVuSans-Bold-65"/>
     <use x="131.109375" xlink:href="#DejaVuSans-Bold-73"/>
     <use x="190.630859" xlink:href="#DejaVuSans-Bold-20"/>
     <use x="225.445312" xlink:href="#DejaVuSans-Bold-28"/>
     <use x="271.148438" xlink:href="#DejaVuSans-Bold-6d"/>
     <use x="375.347656" xlink:href="#DejaVuSans-Bold-69"/>
     <use x="409.625" xlink:href="#DejaVuSans-Bold-6e"/>
     <use x="480.816406" xlink:href="#DejaVuSans-Bold-6f"/>
     <use x="549.517578" xlink:href="#DejaVuSans-Bold-72"/>
     <use x="598.833984" xlink:href="#DejaVuSans-Bold-29"/>
    </g>
   </g>
   <g id="text_8">
    <!-- 37% -->
    <g style="fill:#ffffff;" transform="translate(206.713698 285.302666)scale(0.12 -0.12)">
     <defs>
      <path d="M 2981 2516 
Q 3453 2394 3698 2092 
Q 3944 1791 3944 1325 
Q 3944 631 3412 270 
Q 2881 -91 1863 -91 
Q 1503 -91 1142 -33 
Q 781 25 428 141 
L 428 1069 
Q 766 900 1098 814 
Q 1431 728 1753 728 
Q 2231 728 2486 893 
Q 2741 1059 2741 1369 
Q 2741 1688 2480 1852 
Q 2219 2016 1709 2016 
L 1228 2016 
L 1228 2791 
L 1734 2791 
Q 2188 2791 2409 2933 
Q 2631 3075 2631 3366 
Q 2631 3634 2415 3781 
Q 2200 3928 1806 3928 
Q 1516 3928 1219 3862 
Q 922 3797 628 3669 
L 628 4550 
Q 984 4650 1334 4700 
Q 1684 4750 2022 4750 
Q 2931 4750 3382 4451 
Q 3834 4153 3834 3553 
Q 3834 3144 3618 2883 
Q 3403 2622 2981 2516 
z
" id="DejaVuSans-Bold-33" transform="scale(0.015625)"/>
      <path d="M 428 4666 
L 3944 4666 
L 3944 3988 
L 2125 0 
L 953 0 
L 2675 3781 
L 428 3781 
L 428 4666 
z
" id="DejaVuSans-Bold-37" transform="scale(0.015625)"/>
     </defs>
     <use xlink:href="#DejaVuSans-Bold-33"/>
     <use x="69.580078" xlink:href="#DejaVuSans-Bold-37"/>
     <use x="139.160156" xlink:href="#DejaVuSans-Bold-25"/>
    </g>
   </g>
   <g id="text_9">
    <!-- Academia -->
    <g style="fill:#404050;" transform="translate(172.855682 186.5185)scale(0.16 -0.16)">
     <defs>
      <path d="M 3419 850 
L 1538 850 
L 1241 0 
L 31 0 
L 1759 4666 
L 3194 4666 
L 4922 0 
L 3713 0 
L 3419 850 
z
M 1838 1716 
L 3116 1716 
L 2478 3572 
L 1838 1716 
z
" id="DejaVuSans-Bold-41" transform="scale(0.015625)"/>
      <path d="M 3366 3391 
L 3366 2478 
Q 3138 2634 2908 2709 
Q 2678 2784 2431 2784 
Q 1963 2784 1702 2511 
Q 1441 2238 1441 1747 
Q 1441 1256 1702 982 
Q 1963 709 2431 709 
Q 2694 709 2930 787 
Q 3166 866 3366 1019 
L 3366 103 
Q 3103 6 2833 -42 
Q 2563 -91 2291 -91 
Q 1344 -91 809 395 
Q 275 881 275 1747 
Q 275 2613 809 3098 
Q 1344 3584 2291 3584 
Q 2566 3584 2833 3536 
Q 3100 3488 3366 3391 
z
" id="DejaVuSans-Bold-63" transform="scale(0.015625)"/>
      <path d="M 2919 2988 
L 2919 4863 
L 4044 4863 
L 4044 0 
L 2919 0 
L 2919 506 
Q 2688 197 2409 53 
Q 2131 -91 1766 -91 
Q 1119 -91 703 423 
Q 288 938 288 1747 
Q 288 2556 703 3070 
Q 1119 3584 1766 3584 
Q 2128 3584 2408 3439 
Q 2688 3294 2919 2988 
z
M 2181 722 
Q 2541 722 2730 984 
Q 2919 1247 2919 1747 
Q 2919 2247 2730 2509 
Q 2541 2772 2181 2772 
Q 1825 2772 1636 2509 
Q 1447 2247 1447 1747 
Q 1447 1247 1636 984 
Q 1825 722 2181 722 
z
" id="DejaVuSans-Bold-64" transform="scale(0.015625)"/>
     </defs>
     <use xlink:href="#DejaVuSans-Bold-41"/>
     <use x="77.392578" xlink:href="#DejaVuSans-Bold-63"/>
     <use x="136.669922" xlink:href="#DejaVuSans-Bold-61"/>
     <use x="204.150391" xlink:href="#DejaVuSans-Bold-64"/>
     <use x="275.732422" xlink:href="#DejaVuSans-Bold-65"/>
     <use x="343.554688" xlink:href="#DejaVuSans-Bold-6d"/>
     <use x="447.753906" xlink:href="#DejaVuSans-Bold-69"/>
     <use x="482.03125" xlink:href="#DejaVuSans-Bold-61"/>
    </g>
   </g>
   <g id="text_10">
    <!--  -->
    <g style="fill:#404050;" transform="translate(216.818182 179.719875)scale(0.12 -0.12)"/>
    <!--  -->
    <g style="fill:#404050;" transform="translate(216.818182 193.15725)scale(0.12 -0.12)"/>
    <!-- 155 respondents -->
    <g style="fill:#404050;" transform="translate(166.245682 206.594625)scale(0.12 -0.12)">
     <defs>
      <path d="M 794 531 
L 1825 531 
L 1825 4091 
L 703 3866 
L 703 4441 
L 1819 4666 
L 2450 4666 
L 2450 531 
L 3481 531 
L 3481 0 
L 794 0 
L 794 531 
z
" id="DejaVuSans-31" transform="scale(0.015625)"/>
      <path d="M 691 4666 
L 3169 4666 
L 3169 4134 
L 1269 4134 
L 1269 2991 
Q 1406 3038 1543 3061 
Q 1681 3084 1819 3084 
Q 2600 3084 3056 2656 
Q 3513 2228 3513 1497 
Q 3513 744 3044 326 
Q 2575 -91 1722 -91 
Q 1428 -91 1123 -41 
Q 819 9 494 109 
L 494 744 
Q 775 591 1075 516 
Q 1375 441 1709 441 
Q 2250 441 2565 725 
Q 2881 1009 2881 1497 
Q 2881 1984 2565 2268 
Q 2250 2553 1709 2553 
Q 1456 2553 1204 2497 
Q 953 2441 691 2322 
L 691 4666 
z
" id="DejaVuSans-35" transform="scale(0.015625)"/>
      <path id="DejaVuSans-20" transform="scale(0.015625)"/>
      <path d="M 2631 2963 
Q 2534 3019 2420 3045 
Q 2306 3072 2169 3072 
Q 1681 3072 1420 2755 
Q 1159 2438 1159 1844 
L 1159 0 
L 581 0 
L 581 3500 
L 1159 3500 
L 1159 2956 
Q 1341 3275 1631 3429 
Q 1922 3584 2338 3584 
Q 2397 3584 2469 3576 
Q 2541 3569 2628 3553 
L 2631 2963 
z
" id="DejaVuSans-72" transform="scale(0.015625)"/>
      <path d="M 3597 1894 
L 3597 1613 
L 953 1613 
Q 991 1019 1311 708 
Q 1631 397 2203 397 
Q 2534 397 2845 478 
Q 3156 559 3463 722 
L 3463 178 
Q 3153 47 2828 -22 
Q 2503 -91 2169 -91 
Q 1331 -91 842 396 
Q 353 884 353 1716 
Q 353 2575 817 3079 
Q 1281 3584 2069 3584 
Q 2775 3584 3186 3129 
Q 3597 2675 3597 1894 
z
M 3022 2063 
Q 3016 2534 2758 2815 
Q 2500 3097 2075 3097 
Q 1594 3097 1305 2825 
Q 1016 2553 972 2059 
L 3022 2063 
z
" id="DejaVuSans-65" transform="scale(0.015625)"/>
      <path d="M 2834 3397 
L 2834 2853 
Q 2591 2978 2328 3040 
Q 2066 3103 1784 3103 
Q 1356 3103 1142 2972 
Q 928 2841 928 2578 
Q 928 2378 1081 2264 
Q 1234 2150 1697 2047 
L 1894 2003 
Q 2506 1872 2764 1633 
Q 3022 1394 3022 966 
Q 3022 478 2636 193 
Q 2250 -91 1575 -91 
Q 1294 -91 989 -36 
Q 684 19 347 128 
L 347 722 
Q 666 556 975 473 
Q 1284 391 1588 391 
Q 1994 391 2212 530 
Q 2431 669 2431 922 
Q 2431 1156 2273 1281 
Q 2116 1406 1581 1522 
L 1381 1569 
Q 847 1681 609 1914 
Q 372 2147 372 2553 
Q 372 3047 722 3315 
Q 1072 3584 1716 3584 
Q 2034 3584 2315 3537 
Q 2597 3491 2834 3397 
z
" id="DejaVuSans-73" transform="scale(0.015625)"/>
      <path d="M 1159 525 
L 1159 -1331 
L 581 -1331 
L 581 3500 
L 1159 3500 
L 1159 2969 
Q 1341 3281 1617 3432 
Q 1894 3584 2278 3584 
Q 2916 3584 3314 3078 
Q 3713 2572 3713 1747 
Q 3713 922 3314 415 
Q 2916 -91 2278 -91 
Q 1894 -91 1617 61 
Q 1341 213 1159 525 
z
M 3116 1747 
Q 3116 2381 2855 2742 
Q 2594 3103 2138 3103 
Q 1681 3103 1420 2742 
Q 1159 2381 1159 1747 
Q 1159 1113 1420 752 
Q 1681 391 2138 391 
Q 2594 391 2855 752 
Q 3116 1113 3116 1747 
z
" id="DejaVuSans-70" transform="scale(0.015625)"/>
      <path d="M 1959 3097 
Q 1497 3097 1228 2736 
Q 959 2375 959 1747 
Q 959 1119 1226 758 
Q 1494 397 1959 397 
Q 2419 397 2687 759 
Q 2956 1122 2956 1747 
Q 2956 2369 2687 2733 
Q 2419 3097 1959 3097 
z
M 1959 3584 
Q 2709 3584 3137 3096 
Q 3566 2609 3566 1747 
Q 3566 888 3137 398 
Q 2709 -91 1959 -91 
Q 1206 -91 779 398 
Q 353 888 353 1747 
Q 353 2609 779 3096 
Q 1206 3584 1959 3584 
z
" id="DejaVuSans-6f" transform="scale(0.015625)"/>
      <path d="M 3513 2113 
L 3513 0 
L 2938 0 
L 2938 2094 
Q 2938 2591 2744 2837 
Q 2550 3084 2163 3084 
Q 1697 3084 1428 2787 
Q 1159 2491 1159 1978 
L 1159 0 
L 581 0 
L 581 3500 
L 1159 3500 
L 1159 2956 
Q 1366 3272 1645 3428 
Q 1925 3584 2291 3584 
Q 2894 3584 3203 3211 
Q 3513 2838 3513 2113 
z
" id="DejaVuSans-6e" transform="scale(0.015625)"/>
      <path d="M 2906 2969 
L 2906 4863 
L 3481 4863 
L 3481 0 
L 2906 0 
L 2906 525 
Q 2725 213 2448 61 
Q 2172 -91 1784 -91 
Q 1150 -91 751 415 
Q 353 922 353 1747 
Q 353 2572 751 3078 
Q 1150 3584 1784 3584 
Q 2172 3584 2448 3432 
Q 2725 3281 2906 2969 
z
M 947 1747 
Q 947 1113 1208 752 
Q 1469 391 1925 391 
Q 2381 391 2643 752 
Q 2906 1113 2906 1747 
Q 2906 2381 2643 2742 
Q 2381 3103 1925 3103 
Q 1469 3103 1208 2742 
Q 947 2381 947 1747 
z
" id="DejaVuSans-64" transform="scale(0.015625)"/>
      <path d="M 1172 4494 
L 1172 3500 
L 2356 3500 
L 2356 3053 
L 1172 3053 
L 1172 1153 
Q 1172 725 1289 603 
Q 1406 481 1766 481 
L 2356 481 
L 2356 0 
L 1766 0 
Q 1100 0 847 248 
Q 594 497 594 1153 
L 594 3053 
L 172 3053 
L 172 3500 
L 594 3500 
L 594 4494 
L 1172 4494 
z
" id="DejaVuSans-74" transform="scale(0.015625)"/>
     </defs>
     <use xlink:href="#DejaVuSans-31"/>
     <use x="63.623047" xlink:href="#DejaVuSans-35"/>
     <use x="127.246094" xlink:href="#DejaVuSans-35"/>
     <use x="190.869141" xlink:href="#DejaVuSans-20"/>
     <use x="222.65625" xlink:href="#DejaVuSans-72"/>
     <use x="261.519531" xlink:href="#DejaVuSans-65"/>
     <use x="323.042969" xlink:href="#DejaVuSans-73"/>
     <use x="375.142578" xlink:href="#DejaVuSans-70"/>
     <use x="438.619141" xlink:href="#DejaVuSans-6f"/>
     <use x="499.800781" xlink:href="#DejaVuSans-6e"/>
     <use x="563.179688" xlink:href="#DejaVuSans-64"/>
     <use x="626.65625" xlink:href="#DejaVuSans-65"/>
     <use x="688.179688" xlink:href="#DejaVuSans-6e"/>
     <use x="751.558594" xlink:href="#DejaVuSans-74"/>
     <use x="790.767578" xlink:href="#DejaVuSans-73"/>
    </g>
   </g>
  </g>
  <g id="axes_2">
   <g id="patch_6">
    <path d="M 626.340015 228.120454 
C 627.163667 225.857489 627.914057 223.568526 628.590013 221.257142 
C 629.265969 218.945758 629.867139 216.613156 630.392583 214.262981 
L 580.887517 203.194802 
C 580.600255 204.479647 580.271595 205.754884 579.902049 207.018521 
C 579.532502 208.282158 579.122263 209.533538 578.671971 210.770704 
L 626.340015 228.120454 
z
" style="fill:#2ca02c;stroke:#ffffff;stroke-linejoin:miter;stroke-width:3;"/>
   </g>
   <g id="patch_7">
    <path d="M 630.392583 214.262981 
C 632.1456 206.422197 633.049137 198.415376 633.087555 190.381107 
C 633.125972 182.346837 632.299049 174.331742 630.621096 166.474551 
L 581.012445 177.068792 
C 581.929784 181.36433 582.381865 185.746196 582.360862 190.138544 
C 582.339859 194.530892 581.845894 198.908233 580.887517 203.194802 
L 630.392583 214.262981 
z
" style="fill:#1f77b4;stroke:#ffffff;stroke-linejoin:miter;stroke-width:3;"/>
   </g>
   <g id="patch_8">
    <path d="M 630.621096 166.474551 
C 627.50967 151.904971 621.519883 138.102338 613.003881 125.878126 
C 604.487879 113.653914 593.615888 103.25247 581.027084 95.285309 
C 568.43828 87.318147 554.384299 81.944521 539.691392 79.480354 
C 524.998485 77.016186 509.960345 77.510732 495.461083 80.934917 
C 480.961821 84.359102 467.291259 90.644481 455.253107 99.421527 
C 443.214956 108.198574 433.049842 119.291846 425.355386 132.049158 
C 417.660929 144.806469 412.590933 158.972815 410.443469 173.71534 
C 408.296005 188.457865 409.113997 203.481883 412.849356 217.904114 
L 461.956289 205.185415 
C 459.914163 197.300759 459.466965 189.087104 460.640987 181.027343 
C 461.815009 172.967581 464.586784 165.222817 468.793356 158.248375 
C 472.999927 151.273932 478.557211 145.209223 485.138487 140.410797 
C 491.719764 135.612372 499.193482 132.176146 507.120251 130.304138 
C 515.047021 128.432131 523.268396 128.161762 531.301032 129.508926 
C 539.333667 130.856091 547.017001 133.79386 553.89932 138.14952 
C 560.781639 142.50518 566.725374 148.191666 571.381086 154.874662 
C 576.036797 161.557658 579.311424 169.103579 581.012445 177.068792 
L 630.621096 166.474551 
z
" style="fill:#d62728;stroke:#ffffff;stroke-linejoin:miter;stroke-width:3;"/>
   </g>
   <g id="patch_9">
    <path d="M 412.849356 217.904114 
C 418.835583 241.016957 432.064268 261.618424 450.590224 276.679213 
C 469.11618 291.740003 491.984569 300.483874 515.832757 301.625102 
C 539.680944 302.76633 563.27978 296.246095 583.159222 283.023152 
C 603.038663 269.800209 618.174114 250.556075 626.340011 228.120466 
L 578.671969 210.770711 
C 574.20766 223.036294 565.933085 233.557093 555.064963 240.786097 
C 544.196841 248.015101 531.295319 251.579724 518.257478 250.955813 
C 505.219636 250.331901 492.717451 245.551613 482.589282 237.317856 
C 472.461112 229.084098 465.228969 217.821243 461.956289 205.185415 
L 412.849356 217.904114 
z
" style="fill:#ff7f0e;stroke:#ffffff;stroke-linejoin:miter;stroke-width:3;"/>
   </g>
   <g id="matplotlib.axis_3"/>
   <g id="matplotlib.axis_4"/>
   <g id="text_11">
    <!-- No -->
    <g style="fill:#2ca02c;" transform="translate(639.330833 227.709506)scale(0.12 -0.12)">
     <use xlink:href="#DejaVuSans-Bold-4e"/>
     <use x="83.691406" xlink:href="#DejaVuSans-Bold-6f"/>
    </g>
   </g>
   <g id="text_12">
    <!-- 2% -->
    <g style="fill:#ffffff;" transform="translate(596.921499 218.286163)scale(0.12 -0.12)">
     <defs>
      <path d="M 1844 884 
L 3897 884 
L 3897 0 
L 506 0 
L 506 884 
L 2209 2388 
Q 2438 2594 2547 2791 
Q 2656 2988 2656 3200 
Q 2656 3528 2436 3728 
Q 2216 3928 1850 3928 
Q 1569 3928 1234 3808 
Q 900 3688 519 3450 
L 519 4475 
Q 925 4609 1322 4679 
Q 1719 4750 2100 4750 
Q 2938 4750 3402 4381 
Q 3866 4013 3866 3353 
Q 3866 2972 3669 2642 
Q 3472 2313 2841 1759 
L 1844 884 
z
" id="DejaVuSans-Bold-32" transform="scale(0.015625)"/>
     </defs>
     <use xlink:href="#DejaVuSans-Bold-32"/>
     <use x="69.580078" xlink:href="#DejaVuSans-Bold-25"/>
    </g>
   </g>
   <g id="text_13">
    <!-- Unsure -->
    <g style="fill:#1f77b4;" transform="translate(644.278128 193.745867)scale(0.12 -0.12)">
     <use xlink:href="#DejaVuSans-Bold-55"/>
     <use x="81.201172" xlink:href="#DejaVuSans-Bold-6e"/>
     <use x="152.392578" xlink:href="#DejaVuSans-Bold-73"/>
     <use x="211.914062" xlink:href="#DejaVuSans-Bold-75"/>
     <use x="283.105469" xlink:href="#DejaVuSans-Bold-72"/>
     <use x="332.421875" xlink:href="#DejaVuSans-Bold-65"/>
    </g>
   </g>
   <g id="text_14">
    <!-- 7% -->
    <g style="fill:#ffffff;" transform="translate(600.519532 193.585335)scale(0.12 -0.12)">
     <use xlink:href="#DejaVuSans-Bold-37"/>
     <use x="69.580078" xlink:href="#DejaVuSans-Bold-25"/>
    </g>
   </g>
   <g id="text_15">
    <!-- Yes (major) -->
    <g style="fill:#d62728;" transform="translate(415.989634 73.308184)scale(0.12 -0.12)">
     <use xlink:href="#DejaVuSans-Bold-59"/>
     <use x="63.287109" xlink:href="#DejaVuSans-Bold-65"/>
     <use x="131.109375" xlink:href="#DejaVuSans-Bold-73"/>
     <use x="190.630859" xlink:href="#DejaVuSans-Bold-20"/>
     <use x="225.445312" xlink:href="#DejaVuSans-Bold-28"/>
     <use x="271.148438" xlink:href="#DejaVuSans-Bold-6d"/>
     <use x="375.347656" xlink:href="#DejaVuSans-Bold-61"/>
     <use x="442.828125" xlink:href="#DejaVuSans-Bold-6a"/>
     <use x="477.105469" xlink:href="#DejaVuSans-Bold-6f"/>
     <use x="545.806641" xlink:href="#DejaVuSans-Bold-72"/>
     <use x="595.123047" xlink:href="#DejaVuSans-Bold-29"/>
    </g>
   </g>
   <g id="text_16">
    <!-- 51% -->
    <g style="fill:#ffffff;" transform="translate(486.243667 106.028384)scale(0.12 -0.12)">
     <defs>
      <path d="M 750 831 
L 1813 831 
L 1813 3847 
L 722 3622 
L 722 4441 
L 1806 4666 
L 2950 4666 
L 2950 831 
L 4013 831 
L 4013 0 
L 750 0 
L 750 831 
z
" id="DejaVuSans-Bold-31" transform="scale(0.015625)"/>
     </defs>
     <use xlink:href="#DejaVuSans-Bold-35"/>
     <use x="69.580078" xlink:href="#DejaVuSans-Bold-31"/>
     <use x="139.160156" xlink:href="#DejaVuSans-Bold-25"/>
    </g>
   </g>
   <g id="text_17">
    <!-- Yes (minor) -->
    <g style="fill:#ff7f0e;" transform="translate(437.9541 316.114263)scale(0.12 -0.12)">
     <use xlink:href="#DejaVuSans-Bold-59"/>
     <use x="63.287109" xlink:href="#DejaVuSans-Bold-65"/>
     <use x="131.109375" xlink:href="#DejaVuSans-Bold-73"/>
     <use x="190.630859" xlink:href="#DejaVuSans-Bold-20"/>
     <use x="225.445312" xlink:href="#DejaVuSans-Bold-28"/>
     <use x="271.148438" xlink:href="#DejaVuSans-Bold-6d"/>
     <use x="375.347656" xlink:href="#DejaVuSans-Bold-69"/>
     <use x="409.625" xlink:href="#DejaVuSans-Bold-6e"/>
     <use x="480.816406" xlink:href="#DejaVuSans-Bold-6f"/>
     <use x="549.517578" xlink:href="#DejaVuSans-Bold-72"/>
     <use x="598.833984" xlink:href="#DejaVuSans-Bold-29"/>
    </g>
   </g>
   <g id="text_18">
    <!-- 40% -->
    <g style="fill:#ffffff;" transform="translate(502.541006 282.580532)scale(0.12 -0.12)">
     <defs>
      <path d="M 2356 3675 
L 1038 1722 
L 2356 1722 
L 2356 3675 
z
M 2156 4666 
L 3494 4666 
L 3494 1722 
L 4159 1722 
L 4159 850 
L 3494 850 
L 3494 0 
L 2356 0 
L 2356 850 
L 288 850 
L 288 1881 
L 2156 4666 
z
" id="DejaVuSans-Bold-34" transform="scale(0.015625)"/>
     </defs>
     <use xlink:href="#DejaVuSans-Bold-34"/>
     <use x="69.580078" xlink:href="#DejaVuSans-Bold-30"/>
     <use x="139.160156" xlink:href="#DejaVuSans-Bold-25"/>
    </g>
   </g>
   <g id="text_19">
    <!-- Industry -->
    <g style="fill:#404050;" transform="translate(483.344318 186.3935)scale(0.16 -0.16)">
     <defs>
      <path d="M 588 4666 
L 1791 4666 
L 1791 0 
L 588 0 
L 588 4666 
z
" id="DejaVuSans-Bold-49" transform="scale(0.015625)"/>
      <path d="M 1759 4494 
L 1759 3500 
L 2913 3500 
L 2913 2700 
L 1759 2700 
L 1759 1216 
Q 1759 972 1856 886 
Q 1953 800 2241 800 
L 2816 800 
L 2816 0 
L 1856 0 
Q 1194 0 917 276 
Q 641 553 641 1216 
L 641 2700 
L 84 2700 
L 84 3500 
L 641 3500 
L 641 4494 
L 1759 4494 
z
" id="DejaVuSans-Bold-74" transform="scale(0.015625)"/>
      <path d="M 78 3500 
L 1197 3500 
L 2138 1125 
L 2938 3500 
L 4056 3500 
L 2584 -331 
Q 2363 -916 2067 -1148 
Q 1772 -1381 1288 -1381 
L 641 -1381 
L 641 -647 
L 991 -647 
Q 1275 -647 1404 -556 
Q 1534 -466 1606 -231 
L 1638 -134 
L 78 3500 
z
" id="DejaVuSans-Bold-79" transform="scale(0.015625)"/>
     </defs>
     <use xlink:href="#DejaVuSans-Bold-49"/>
     <use x="37.207031" xlink:href="#DejaVuSans-Bold-6e"/>
     <use x="108.398438" xlink:href="#DejaVuSans-Bold-64"/>
     <use x="179.980469" xlink:href="#DejaVuSans-Bold-75"/>
     <use x="251.171875" xlink:href="#DejaVuSans-Bold-73"/>
     <use x="310.693359" xlink:href="#DejaVuSans-Bold-74"/>
     <use x="358.496094" xlink:href="#DejaVuSans-Bold-72"/>
     <use x="407.8125" xlink:href="#DejaVuSans-Bold-79"/>
    </g>
   </g>
   <g id="text_20">
    <!--  -->
    <g style="fill:#404050;" transform="translate(521.181818 179.719875)scale(0.12 -0.12)"/>
    <!--  -->
    <g style="fill:#404050;" transform="translate(521.181818 193.15725)scale(0.12 -0.12)"/>
    <!-- 146 respondents -->
    <g style="fill:#404050;" transform="translate(470.609318 206.594625)scale(0.12 -0.12)">
     <defs>
      <path d="M 2419 4116 
L 825 1625 
L 2419 1625 
L 2419 4116 
z
M 2253 4666 
L 3047 4666 
L 3047 1625 
L 3713 1625 
L 3713 1100 
L 3047 1100 
L 3047 0 
L 2419 0 
L 2419 1100 
L 313 1100 
L 313 1709 
L 2253 4666 
z
" id="DejaVuSans-34" transform="scale(0.015625)"/>
      <path d="M 2113 2584 
Q 1688 2584 1439 2293 
Q 1191 2003 1191 1497 
Q 1191 994 1439 701 
Q 1688 409 2113 409 
Q 2538 409 2786 701 
Q 3034 994 3034 1497 
Q 3034 2003 2786 2293 
Q 2538 2584 2113 2584 
z
M 3366 4563 
L 3366 3988 
Q 3128 4100 2886 4159 
Q 2644 4219 2406 4219 
Q 1781 4219 1451 3797 
Q 1122 3375 1075 2522 
Q 1259 2794 1537 2939 
Q 1816 3084 2150 3084 
Q 2853 3084 3261 2657 
Q 3669 2231 3669 1497 
Q 3669 778 3244 343 
Q 2819 -91 2113 -91 
Q 1303 -91 875 529 
Q 447 1150 447 2328 
Q 447 3434 972 4092 
Q 1497 4750 2381 4750 
Q 2619 4750 2861 4703 
Q 3103 4656 3366 4563 
z
" id="DejaVuSans-36" transform="scale(0.015625)"/>
     </defs>
     <use xlink:href="#DejaVuSans-31"/>
     <use x="63.623047" xlink:href="#DejaVuSans-34"/>
     <use x="127.246094" xlink:href="#DejaVuSans-36"/>
     <use x="190.869141" xlink:href="#DejaVuSans-20"/>
     <use x="222.65625" xlink:href="#DejaVuSans-72"/>
     <use x="261.519531" xlink:href="#DejaVuSans-65"/>
     <use x="323.042969" xlink:href="#DejaVuSans-73"/>
     <use x="375.142578" xlink:href="#DejaVuSans-70"/>
     <use x="438.619141" xlink:href="#DejaVuSans-6f"/>
     <use x="499.800781" xlink:href="#DejaVuSans-6e"/>
     <use x="563.179688" xlink:href="#DejaVuSans-64"/>
     <use x="626.65625" xlink:href="#DejaVuSans-65"/>
     <use x="688.179688" xlink:href="#DejaVuSans-6e"/>
     <use x="751.558594" xlink:href="#DejaVuSans-74"/>
     <use x="790.767578" xlink:href="#DejaVuSans-73"/>
    </g>
   </g>
  </g>
  <g id="text_21">
   <!-- Do you think there is a reproducibility problem in subsurface geoscience? -->
   <g style="fill:#404050;" transform="translate(26.38 19.7895)scale(0.16 -0.16)">
    <defs>
     <path d="M 1791 3756 
L 1791 909 
L 2222 909 
Q 2959 909 3348 1275 
Q 3738 1641 3738 2338 
Q 3738 3031 3350 3393 
Q 2963 3756 2222 3756 
L 1791 3756 
z
M 588 4666 
L 1856 4666 
Q 2919 4666 3439 4514 
Q 3959 4363 4331 4000 
Q 4659 3684 4818 3271 
Q 4978 2859 4978 2338 
Q 4978 1809 4818 1395 
Q 4659 981 4331 666 
Q 3956 303 3431 151 
Q 2906 0 1856 0 
L 588 0 
L 588 4666 
z
" id="DejaVuSans-Bold-44" transform="scale(0.015625)"/>
     <path d="M 4056 2131 
L 4056 0 
L 2931 0 
L 2931 347 
L 2931 1625 
Q 2931 2084 2911 2256 
Q 2891 2428 2841 2509 
Q 2775 2619 2662 2680 
Q 2550 2741 2406 2741 
Q 2056 2741 1856 2470 
Q 1656 2200 1656 1722 
L 1656 0 
L 538 0 
L 538 4863 
L 1656 4863 
L 1656 2988 
Q 1909 3294 2193 3439 
Q 2478 3584 2822 3584 
Q 3428 3584 3742 3212 
Q 4056 2841 4056 2131 
z
" id="DejaVuSans-Bold-68" transform="scale(0.015625)"/>
     <path d="M 538 4863 
L 1656 4863 
L 1656 2216 
L 2944 3500 
L 4244 3500 
L 2534 1894 
L 4378 0 
L 3022 0 
L 1656 1459 
L 1656 0 
L 538 0 
L 538 4863 
z
" id="DejaVuSans-Bold-6b" transform="scale(0.015625)"/>
     <path d="M 1656 506 
L 1656 -1331 
L 538 -1331 
L 538 3500 
L 1656 3500 
L 1656 2988 
Q 1888 3294 2169 3439 
Q 2450 3584 2816 3584 
Q 3463 3584 3878 3070 
Q 4294 2556 4294 1747 
Q 4294 938 3878 423 
Q 3463 -91 2816 -91 
Q 2450 -91 2169 54 
Q 1888 200 1656 506 
z
M 2400 2772 
Q 2041 2772 1848 2508 
Q 1656 2244 1656 1747 
Q 1656 1250 1848 986 
Q 2041 722 2400 722 
Q 2759 722 2948 984 
Q 3138 1247 3138 1747 
Q 3138 2247 2948 2509 
Q 2759 2772 2400 2772 
z
" id="DejaVuSans-Bold-70" transform="scale(0.015625)"/>
     <path d="M 2400 722 
Q 2759 722 2948 984 
Q 3138 1247 3138 1747 
Q 3138 2247 2948 2509 
Q 2759 2772 2400 2772 
Q 2041 2772 1848 2508 
Q 1656 2244 1656 1747 
Q 1656 1250 1848 986 
Q 2041 722 2400 722 
z
M 1656 2988 
Q 1888 3294 2169 3439 
Q 2450 3584 2816 3584 
Q 3463 3584 3878 3070 
Q 4294 2556 4294 1747 
Q 4294 938 3878 423 
Q 3463 -91 2816 -91 
Q 2450 -91 2169 54 
Q 1888 200 1656 506 
L 1656 0 
L 538 0 
L 538 4863 
L 1656 4863 
L 1656 2988 
z
" id="DejaVuSans-Bold-62" transform="scale(0.015625)"/>
     <path d="M 538 4863 
L 1656 4863 
L 1656 0 
L 538 0 
L 538 4863 
z
" id="DejaVuSans-Bold-6c" transform="scale(0.015625)"/>
     <path d="M 2841 4863 
L 2841 4128 
L 2222 4128 
Q 1984 4128 1890 4042 
Q 1797 3956 1797 3744 
L 1797 3500 
L 2753 3500 
L 2753 2700 
L 1797 2700 
L 1797 0 
L 678 0 
L 678 2700 
L 122 2700 
L 122 3500 
L 678 3500 
L 678 3744 
Q 678 4316 997 4589 
Q 1316 4863 1984 4863 
L 2841 4863 
z
" id="DejaVuSans-Bold-66" transform="scale(0.015625)"/>
     <path d="M 2919 594 
Q 2688 288 2409 144 
Q 2131 0 1766 0 
Q 1125 0 706 504 
Q 288 1009 288 1791 
Q 288 2575 706 3076 
Q 1125 3578 1766 3578 
Q 2131 3578 2409 3434 
Q 2688 3291 2919 2981 
L 2919 3500 
L 4044 3500 
L 4044 353 
Q 4044 -491 3511 -936 
Q 2978 -1381 1966 -1381 
Q 1638 -1381 1331 -1331 
Q 1025 -1281 716 -1178 
L 716 -306 
Q 1009 -475 1290 -558 
Q 1572 -641 1856 -641 
Q 2406 -641 2662 -400 
Q 2919 -159 2919 353 
L 2919 594 
z
M 2181 2772 
Q 1834 2772 1640 2515 
Q 1447 2259 1447 1791 
Q 1447 1309 1634 1061 
Q 1822 813 2181 813 
Q 2531 813 2725 1069 
Q 2919 1325 2919 1791 
Q 2919 2259 2725 2515 
Q 2531 2772 2181 2772 
z
" id="DejaVuSans-Bold-67" transform="scale(0.015625)"/>
     <path d="M 2216 1575 
L 1088 1575 
L 1088 1728 
Q 1088 1984 1191 2182 
Q 1294 2381 1625 2688 
L 1825 2869 
Q 2003 3031 2086 3175 
Q 2169 3319 2169 3463 
Q 2169 3681 2019 3804 
Q 1869 3928 1600 3928 
Q 1347 3928 1053 3823 
Q 759 3719 441 3513 
L 441 4494 
Q 819 4625 1131 4687 
Q 1444 4750 1734 4750 
Q 2497 4750 2897 4439 
Q 3297 4128 3297 3531 
Q 3297 3225 3175 2983 
Q 3053 2741 2759 2463 
L 2559 2284 
Q 2347 2091 2281 1973 
Q 2216 1856 2216 1716 
L 2216 1575 
z
M 1088 1113 
L 2216 1113 
L 2216 0 
L 1088 0 
L 1088 1113 
z
" id="DejaVuSans-Bold-3f" transform="scale(0.015625)"/>
    </defs>
    <use xlink:href="#DejaVuSans-Bold-44"/>
    <use x="83.007812" xlink:href="#DejaVuSans-Bold-6f"/>
    <use x="151.708984" xlink:href="#DejaVuSans-Bold-20"/>
    <use x="186.523438" xlink:href="#DejaVuSans-Bold-79"/>
    <use x="251.708984" xlink:href="#DejaVuSans-Bold-6f"/>
    <use x="320.410156" xlink:href="#DejaVuSans-Bold-75"/>
    <use x="391.601562" xlink:href="#DejaVuSans-Bold-20"/>
    <use x="426.416016" xlink:href="#DejaVuSans-Bold-74"/>
    <use x="474.21875" xlink:href="#DejaVuSans-Bold-68"/>
    <use x="545.410156" xlink:href="#DejaVuSans-Bold-69"/>
    <use x="579.6875" xlink:href="#DejaVuSans-Bold-6e"/>
    <use x="650.878906" xlink:href="#DejaVuSans-Bold-6b"/>
    <use x="717.382812" xlink:href="#DejaVuSans-Bold-20"/>
    <use x="752.197266" xlink:href="#DejaVuSans-Bold-74"/>
    <use x="800" xlink:href="#DejaVuSans-Bold-68"/>
    <use x="871.191406" xlink:href="#DejaVuSans-Bold-65"/>
    <use x="939.013672" xlink:href="#DejaVuSans-Bold-72"/>
    <use x="988.330078" xlink:href="#DejaVuSans-Bold-65"/>
    <use x="1056.152344" xlink:href="#DejaVuSans-Bold-20"/>
    <use x="1090.966797" xlink:href="#DejaVuSans-Bold-69"/>
    <use x="1125.244141" xlink:href="#DejaVuSans-Bold-73"/>
    <use x="1184.765625" xlink:href="#DejaVuSans-Bold-20"/>
    <use x="1219.580078" xlink:href="#DejaVuSans-Bold-61"/>
    <use x="1287.060547" xlink:href="#DejaVuSans-Bold-20"/>
    <use x="1321.875" xlink:href="#DejaVuSans-Bold-72"/>
    <use x="1371.191406" xlink:href="#DejaVuSans-Bold-65"/>
    <use x="1439.013672" xlink:href="#DejaVuSans-Bold-70"/>
    <use x="1510.595703" xlink:href="#DejaVuSans-Bold-72"/>
    <use x="1559.912109" xlink:href="#DejaVuSans-Bold-6f"/>
    <use x="1628.613281" xlink:href="#DejaVuSans-Bold-64"/>
    <use x="1700.195312" xlink:href="#DejaVuSans-Bold-75"/>
    <use x="1771.386719" xlink:href="#DejaVuSans-Bold-63"/>
    <use x="1830.664062" xlink:href="#DejaVuSans-Bold-69"/>
    <use x="1864.941406" xlink:href="#DejaVuSans-Bold-62"/>
    <use x="1936.523438" xlink:href="#DejaVuSans-Bold-69"/>
    <use x="1970.800781" xlink:href="#DejaVuSans-Bold-6c"/>
    <use x="2005.078125" xlink:href="#DejaVuSans-Bold-69"/>
    <use x="2039.355469" xlink:href="#DejaVuSans-Bold-74"/>
    <use x="2087.158203" xlink:href="#DejaVuSans-Bold-79"/>
    <use x="2152.34375" xlink:href="#DejaVuSans-Bold-20"/>
    <use x="2187.158203" xlink:href="#DejaVuSans-Bold-70"/>
    <use x="2258.740234" xlink:href="#DejaVuSans-Bold-72"/>
    <use x="2308.056641" xlink:href="#DejaVuSans-Bold-6f"/>
    <use x="2376.757812" xlink:href="#DejaVuSans-Bold-62"/>
    <use x="2448.339844" xlink:href="#DejaVuSans-Bold-6c"/>
    <use x="2482.617188" xlink:href="#DejaVuSans-Bold-65"/>
    <use x="2550.439453" xlink:href="#DejaVuSans-Bold-6d"/>
    <use x="2654.638672" xlink:href="#DejaVuSans-Bold-20"/>
    <use x="2689.453125" xlink:href="#DejaVuSans-Bold-69"/>
    <use x="2723.730469" xlink:href="#DejaVuSans-Bold-6e"/>
    <use x="2794.921875" xlink:href="#DejaVuSans-Bold-20"/>
    <use x="2829.736328" xlink:href="#DejaVuSans-Bold-73"/>
    <use x="2889.257812" xlink:href="#DejaVuSans-Bold-75"/>
    <use x="2960.449219" xlink:href="#DejaVuSans-Bold-62"/>
    <use x="3032.03125" xlink:href="#DejaVuSans-Bold-73"/>
    <use x="3091.552734" xlink:href="#DejaVuSans-Bold-75"/>
    <use x="3162.744141" xlink:href="#DejaVuSans-Bold-72"/>
    <use x="3212.060547" xlink:href="#DejaVuSans-Bold-66"/>
    <use x="3255.566406" xlink:href="#DejaVuSans-Bold-61"/>
    <use x="3323.046875" xlink:href="#DejaVuSans-Bold-63"/>
    <use x="3382.324219" xlink:href="#DejaVuSans-Bold-65"/>
    <use x="3450.146484" xlink:href="#DejaVuSans-Bold-20"/>
    <use x="3484.960938" xlink:href="#DejaVuSans-Bold-67"/>
    <use x="3556.542969" xlink:href="#DejaVuSans-Bold-65"/>
    <use x="3624.365234" xlink:href="#DejaVuSans-Bold-6f"/>
    <use x="3693.066406" xlink:href="#DejaVuSans-Bold-73"/>
    <use x="3752.587891" xlink:href="#DejaVuSans-Bold-63"/>
    <use x="3811.865234" xlink:href="#DejaVuSans-Bold-69"/>
    <use x="3846.142578" xlink:href="#DejaVuSans-Bold-65"/>
    <use x="3913.964844" xlink:href="#DejaVuSans-Bold-6e"/>
    <use x="3985.15625" xlink:href="#DejaVuSans-Bold-63"/>
    <use x="4044.433594" xlink:href="#DejaVuSans-Bold-65"/>
    <use x="4112.255859" xlink:href="#DejaVuSans-Bold-3f"/>
   </g>
  </g>
 </g>
</svg>
