<?xml version="1.0" encoding="utf-8" standalone="no"?>
<!DOCTYPE svg PUBLIC "-//W3C//DTD SVG 1.1//EN"
  "http://www.w3.org/Graphics/SVG/1.1/DTD/svg11.dtd">
<svg height="432pt" version="1.1" viewBox="0 0 432 432" width="432pt" xmlns="http://www.w3.org/2000/svg" xmlns:xlink="http://www.w3.org/1999/xlink">
 <metadata>
  <rdf:RDF xmlns:cc="http://creativecommons.org/ns#" xmlns:dc="http://purl.org/dc/elements/1.1/" xmlns:rdf="http://www.w3.org/1999/02/22-rdf-syntax-ns#">
   <cc:Work>
    <dc:type rdf:resource="http://purl.org/dc/dcmitype/StillImage"/>
    <dc:date>2021-10-07T08:58:58.864102</dc:date>
    <dc:format>image/svg+xml</dc:format>
    <dc:creator>
     <cc:Agent>
      <dc:title>Matplotlib v3.4.2, https://matplotlib.org/</dc:title>
     </cc:Agent>
    </dc:creator>
   </cc:Work>
  </rdf:RDF>
 </metadata>
 <defs>
  <style type="text/css">*{stroke-linecap:butt;stroke-linejoin:round;}</style>
 </defs>
 <g id="figure_1">
  <g id="patch_1">
   <path d="M 0 432 
L 432 432 
L 432 0 
L 0 0 
z
" style="fill:none;"/>
  </g>
  <g id="axes_1">
   <g id="patch_2">
    <path d="M 351.864 214.92 
C 351.864 191.484878 345.549557 168.477049 333.587158 148.324978 
C 321.624758 128.172907 304.450624 111.611462 283.877476 100.388693 
C 263.304328 89.165924 240.082389 83.691083 216.662721 84.542036 
C 193.243053 85.392989 170.479681 92.538705 150.775267 105.224958 
L 179.02516 149.102975 
C 190.847809 141.491223 204.505832 137.203793 218.557633 136.693222 
C 232.609433 136.18265 246.542597 139.467555 258.886486 146.201216 
C 271.230375 152.934877 281.534855 162.871744 288.712295 174.962987 
C 295.889734 187.05423 299.6784 200.858927 299.6784 214.92 
L 351.864 214.92 
z
" style="fill:#1f77b4;stroke:#ffffff;stroke-linejoin:miter;stroke-width:3;"/>
   </g>
   <g id="patch_3">
    <path d="M 150.775267 105.224958 
C 134.608443 115.63361 120.940788 129.488692 110.75328 145.795774 
C 100.565772 162.102855 94.108116 180.462233 91.843801 199.556188 
C 89.579487 218.650143 91.564016 238.010663 97.65495 256.248172 
C 103.745884 274.485682 113.793929 291.153162 127.077899 305.054325 
L 164.80674 269.000595 
C 156.836357 260.659897 150.80753 250.659409 147.15297 239.716903 
C 143.498409 228.774398 142.307692 217.158086 143.666281 205.701713 
C 145.024869 194.24534 148.899463 183.229713 155.011968 173.445464 
C 161.124473 163.661215 169.325066 155.348166 179.02516 149.102975 
L 150.775267 105.224958 
z
" style="fill:#ff7f0e;stroke:#ffffff;stroke-linejoin:miter;stroke-width:3;"/>
   </g>
   <g id="patch_4">
    <path d="M 127.077899 305.054325 
C 141.605635 320.257042 159.595829 331.724441 179.510452 338.476145 
C 199.425075 345.22785 220.679962 347.065808 241.457978 343.832888 
C 262.235994 340.599969 281.927647 332.391005 298.849448 319.907801 
C 315.771249 307.424597 329.426821 291.033329 338.648716 272.13533 
L 291.749229 249.249198 
C 286.216093 260.587998 278.022749 270.422758 267.869669 277.91268 
C 257.716588 285.402603 245.901596 290.327981 233.434787 292.267733 
C 220.967977 294.207485 208.215045 293.10471 196.266271 289.053687 
C 184.317498 285.002665 173.523381 278.122225 164.80674 269.000595 
L 127.077899 305.054325 
z
" style="fill:#2ca02c;stroke:#ffffff;stroke-linejoin:miter;stroke-width:3;"/>
   </g>
   <g id="patch_5">
    <path d="M 338.648716 272.13533 
C 342.98253 263.254245 346.293291 253.909444 348.51725 244.280861 
C 350.741208 234.652277 351.863998 224.80211 351.864 214.920024 
L 299.6784 214.920015 
C 299.678399 220.849266 299.004725 226.759366 297.67035 232.536516 
C 296.335975 238.313666 294.349518 243.920547 291.749229 249.249198 
L 338.648716 272.13533 
z
" style="fill:#d62728;stroke:#ffffff;stroke-linejoin:miter;stroke-width:3;"/>
   </g>
   <g id="patch_6">
    <path d="M 319.248 214.92 
C 319.248 197.292113 314.48435 179.987532 305.462713 164.843145 
C 296.441075 149.698757 283.492377 137.270079 267.991123 128.876416 
L 258.672899 146.085133 
C 271.073901 152.800063 281.43286 162.743006 288.65017 174.858516 
C 295.86748 186.974026 299.6784 200.81769 299.6784 214.92 
L 319.248 214.92 
z
" style="fill:#1f77b4;stroke:#ffffff;stroke-linejoin:miter;stroke-width:3;"/>
   </g>
   <g id="patch_7">
    <path d="M 267.991123 128.876416 
C 252.755625 120.626655 235.59887 116.569595 218.281994 117.121692 
C 200.965119 117.673788 184.101639 122.815481 169.422585 132.018978 
L 179.818068 148.599183 
C 191.561311 141.236385 205.052095 137.12303 218.905596 136.681353 
C 232.759096 136.239676 246.4845 139.485324 258.672899 146.085133 
L 267.991123 128.876416 
z
" style="fill:#aec7e8;stroke:#ffffff;stroke-linejoin:miter;stroke-width:3;"/>
   </g>
   <g id="patch_8">
    <path d="M 169.422585 132.018978 
C 156.531864 140.101223 145.702192 151.079838 137.796771 164.079749 
C 129.89135 177.079659 125.125953 191.746043 123.880417 206.909881 
L 143.384333 208.511905 
C 144.380762 196.380834 148.19308 184.647728 154.517416 174.247799 
C 160.841753 163.847871 169.505491 155.064978 179.818068 148.599183 
L 169.422585 132.018978 
z
" style="fill:#ff7f0e;stroke:#ffffff;stroke-linejoin:miter;stroke-width:3;"/>
   </g>
   <g id="patch_9">
    <path d="M 123.880417 206.909881 
C 122.757921 220.575762 124.520456 234.326218 129.05342 247.267182 
C 133.586383 260.208146 140.789354 272.052925 150.193987 282.031361 
L 164.435189 268.609089 
C 156.911483 260.62634 151.149107 251.150517 147.522736 240.797746 
C 143.896365 230.444975 142.486337 219.44461 143.384333 208.511905 
L 123.880417 206.909881 
z
" style="fill:#ffbb78;stroke:#ffffff;stroke-linejoin:miter;stroke-width:3;"/>
   </g>
   <g id="patch_10">
    <path d="M 150.193987 282.031361 
C 161.663006 294.200137 176.062213 303.228174 192.011952 308.250455 
C 207.961692 313.272735 224.935752 314.123564 241.307768 310.721419 
L 237.326215 291.561135 
C 224.228602 294.282851 210.649354 293.602188 197.889562 289.584364 
C 185.12977 285.566539 173.610404 278.344109 164.435189 268.609089 
L 150.193987 282.031361 
z
" style="fill:#2ca02c;stroke:#ffffff;stroke-linejoin:miter;stroke-width:3;"/>
   </g>
   <g id="patch_11">
    <path d="M 241.307768 310.721419 
C 255.909835 307.687074 269.626713 301.354038 281.406927 292.207773 
C 293.187142 283.061507 302.721794 271.341845 309.28 257.947162 
L 291.704 249.341729 
C 286.457435 260.057476 278.829713 269.433206 269.405542 276.750218 
C 259.98137 284.06723 249.007868 289.133659 237.326215 291.561135 
L 241.307768 310.721419 
z
" style="fill:#98df8a;stroke:#ffffff;stroke-linejoin:miter;stroke-width:3;"/>
   </g>
   <g id="patch_12">
    <path d="M 309.28 257.947162 
C 310.455589 255.546103 311.532282 253.097873 312.507367 250.608636 
C 313.482453 248.119398 314.355113 245.591245 315.123149 243.030539 
L 296.378519 237.408431 
C 295.76409 239.456996 295.065962 241.479519 294.285894 243.470908 
C 293.505825 245.462298 292.644471 247.420882 291.704 249.341729 
L 309.28 257.947162 
z
" style="fill:#d62728;stroke:#ffffff;stroke-linejoin:miter;stroke-width:3;"/>
   </g>
   <g id="patch_13">
    <path d="M 315.123149 243.030539 
C 316.48896 238.476798 317.521077 233.829565 318.211296 229.125779 
C 318.901514 224.421994 319.248 219.674153 319.248 214.919998 
L 299.6784 214.919998 
C 299.6784 218.723323 299.401211 222.521595 298.849036 226.284623 
C 298.296862 230.047652 297.471168 233.765438 296.378519 237.408431 
L 315.123149 243.030539 
z
" style="fill:#ff9896;stroke:#ffffff;stroke-linejoin:miter;stroke-width:3;"/>
   </g>
   <g id="matplotlib.axis_1"/>
   <g id="matplotlib.axis_2"/>
   <g id="text_1">
    <!-- Post-Doc -->
    <g style="fill:#1f77b4;" transform="translate(290.125224 92.798687)scale(0.14 -0.14)">
     <defs>
      <path d="M 588 4666 
L 2584 4666 
Q 3475 4666 3951 4270 
Q 4428 3875 4428 3144 
Q 4428 2409 3951 2014 
Q 3475 1619 2584 1619 
L 1791 1619 
L 1791 0 
L 588 0 
L 588 4666 
z
M 1791 3794 
L 1791 2491 
L 2456 2491 
Q 2806 2491 2997 2661 
Q 3188 2831 3188 3144 
Q 3188 3456 2997 3625 
Q 2806 3794 2456 3794 
L 1791 3794 
z
" id="DejaVuSans-Bold-50" transform="scale(0.015625)"/>
      <path d="M 2203 2784 
Q 1831 2784 1636 2517 
Q 1441 2250 1441 1747 
Q 1441 1244 1636 976 
Q 1831 709 2203 709 
Q 2569 709 2762 976 
Q 2956 1244 2956 1747 
Q 2956 2250 2762 2517 
Q 2569 2784 2203 2784 
z
M 2203 3584 
Q 3106 3584 3614 3096 
Q 4122 2609 4122 1747 
Q 4122 884 3614 396 
Q 3106 -91 2203 -91 
Q 1297 -91 786 396 
Q 275 884 275 1747 
Q 275 2609 786 3096 
Q 1297 3584 2203 3584 
z
" id="DejaVuSans-Bold-6f" transform="scale(0.015625)"/>
      <path d="M 3272 3391 
L 3272 2541 
Q 2913 2691 2578 2766 
Q 2244 2841 1947 2841 
Q 1628 2841 1473 2761 
Q 1319 2681 1319 2516 
Q 1319 2381 1436 2309 
Q 1553 2238 1856 2203 
L 2053 2175 
Q 2913 2066 3209 1816 
Q 3506 1566 3506 1031 
Q 3506 472 3093 190 
Q 2681 -91 1863 -91 
Q 1516 -91 1145 -36 
Q 775 19 384 128 
L 384 978 
Q 719 816 1070 734 
Q 1422 653 1784 653 
Q 2113 653 2278 743 
Q 2444 834 2444 1013 
Q 2444 1163 2330 1236 
Q 2216 1309 1875 1350 
L 1678 1375 
Q 931 1469 631 1722 
Q 331 1975 331 2491 
Q 331 3047 712 3315 
Q 1094 3584 1881 3584 
Q 2191 3584 2531 3537 
Q 2872 3491 3272 3391 
z
" id="DejaVuSans-Bold-73" transform="scale(0.015625)"/>
      <path d="M 1759 4494 
L 1759 3500 
L 2913 3500 
L 2913 2700 
L 1759 2700 
L 1759 1216 
Q 1759 972 1856 886 
Q 1953 800 2241 800 
L 2816 800 
L 2816 0 
L 1856 0 
Q 1194 0 917 276 
Q 641 553 641 1216 
L 641 2700 
L 84 2700 
L 84 3500 
L 641 3500 
L 641 4494 
L 1759 4494 
z
" id="DejaVuSans-Bold-74" transform="scale(0.015625)"/>
      <path d="M 347 2297 
L 2309 2297 
L 2309 1388 
L 347 1388 
L 347 2297 
z
" id="DejaVuSans-Bold-2d" transform="scale(0.015625)"/>
      <path d="M 1791 3756 
L 1791 909 
L 2222 909 
Q 2959 909 3348 1275 
Q 3738 1641 3738 2338 
Q 3738 3031 3350 3393 
Q 2963 3756 2222 3756 
L 1791 3756 
z
M 588 4666 
L 1856 4666 
Q 2919 4666 3439 4514 
Q 3959 4363 4331 4000 
Q 4659 3684 4818 3271 
Q 4978 2859 4978 2338 
Q 4978 1809 4818 1395 
Q 4659 981 4331 666 
Q 3956 303 3431 151 
Q 2906 0 1856 0 
L 588 0 
L 588 4666 
z
" id="DejaVuSans-Bold-44" transform="scale(0.015625)"/>
      <path d="M 3366 3391 
L 3366 2478 
Q 3138 2634 2908 2709 
Q 2678 2784 2431 2784 
Q 1963 2784 1702 2511 
Q 1441 2238 1441 1747 
Q 1441 1256 1702 982 
Q 1963 709 2431 709 
Q 2694 709 2930 787 
Q 3166 866 3366 1019 
L 3366 103 
Q 3103 6 2833 -42 
Q 2563 -91 2291 -91 
Q 1344 -91 809 395 
Q 275 881 275 1747 
Q 275 2613 809 3098 
Q 1344 3584 2291 3584 
Q 2566 3584 2833 3536 
Q 3100 3488 3366 3391 
z
" id="DejaVuSans-Bold-63" transform="scale(0.015625)"/>
     </defs>
     <use xlink:href="#DejaVuSans-Bold-50"/>
     <use x="73.291016" xlink:href="#DejaVuSans-Bold-6f"/>
     <use x="141.992188" xlink:href="#DejaVuSans-Bold-73"/>
     <use x="201.513672" xlink:href="#DejaVuSans-Bold-74"/>
     <use x="249.316406" xlink:href="#DejaVuSans-Bold-2d"/>
     <use x="290.820312" xlink:href="#DejaVuSans-Bold-44"/>
     <use x="373.828125" xlink:href="#DejaVuSans-Bold-6f"/>
     <use x="442.529297" xlink:href="#DejaVuSans-Bold-63"/>
    </g>
   </g>
   <g id="text_2">
    <!-- 34% -->
    <g style="fill:#ffffff;" transform="translate(259.625023 117.995575)scale(0.14 -0.14)">
     <defs>
      <path d="M 2981 2516 
Q 3453 2394 3698 2092 
Q 3944 1791 3944 1325 
Q 3944 631 3412 270 
Q 2881 -91 1863 -91 
Q 1503 -91 1142 -33 
Q 781 25 428 141 
L 428 1069 
Q 766 900 1098 814 
Q 1431 728 1753 728 
Q 2231 728 2486 893 
Q 2741 1059 2741 1369 
Q 2741 1688 2480 1852 
Q 2219 2016 1709 2016 
L 1228 2016 
L 1228 2791 
L 1734 2791 
Q 2188 2791 2409 2933 
Q 2631 3075 2631 3366 
Q 2631 3634 2415 3781 
Q 2200 3928 1806 3928 
Q 1516 3928 1219 3862 
Q 922 3797 628 3669 
L 628 4550 
Q 984 4650 1334 4700 
Q 1684 4750 2022 4750 
Q 2931 4750 3382 4451 
Q 3834 4153 3834 3553 
Q 3834 3144 3618 2883 
Q 3403 2622 2981 2516 
z
" id="DejaVuSans-Bold-33" transform="scale(0.015625)"/>
      <path d="M 2356 3675 
L 1038 1722 
L 2356 1722 
L 2356 3675 
z
M 2156 4666 
L 3494 4666 
L 3494 1722 
L 4159 1722 
L 4159 850 
L 3494 850 
L 3494 0 
L 2356 0 
L 2356 850 
L 288 850 
L 288 1881 
L 2156 4666 
z
" id="DejaVuSans-Bold-34" transform="scale(0.015625)"/>
      <path d="M 4959 1925 
Q 4738 1925 4616 1733 
Q 4494 1541 4494 1184 
Q 4494 825 4614 633 
Q 4734 441 4959 441 
Q 5184 441 5303 633 
Q 5422 825 5422 1184 
Q 5422 1541 5301 1733 
Q 5181 1925 4959 1925 
z
M 4959 2450 
Q 5541 2450 5875 2112 
Q 6209 1775 6209 1184 
Q 6209 594 5875 251 
Q 5541 -91 4959 -91 
Q 4378 -91 4042 251 
Q 3706 594 3706 1184 
Q 3706 1772 4042 2111 
Q 4378 2450 4959 2450 
z
M 2094 -91 
L 1403 -91 
L 4319 4750 
L 5013 4750 
L 2094 -91 
z
M 1453 4750 
Q 2034 4750 2367 4411 
Q 2700 4072 2700 3481 
Q 2700 2891 2367 2550 
Q 2034 2209 1453 2209 
Q 872 2209 539 2550 
Q 206 2891 206 3481 
Q 206 4072 539 4411 
Q 872 4750 1453 4750 
z
M 1453 4225 
Q 1228 4225 1106 4031 
Q 984 3838 984 3481 
Q 984 3122 1106 2926 
Q 1228 2731 1453 2731 
Q 1678 2731 1798 2926 
Q 1919 3122 1919 3481 
Q 1919 3838 1797 4031 
Q 1675 4225 1453 4225 
z
" id="DejaVuSans-Bold-25" transform="scale(0.015625)"/>
     </defs>
     <use xlink:href="#DejaVuSans-Bold-33"/>
     <use x="69.580078" xlink:href="#DejaVuSans-Bold-34"/>
     <use x="139.160156" xlink:href="#DejaVuSans-Bold-25"/>
    </g>
   </g>
   <g id="text_3">
    <!-- Doctoral -->
    <g style="fill:#ff7f0e;" transform="translate(11.887244 201.882932)scale(0.14 -0.14)">
     <defs>
      <path d="M 3138 2547 
Q 2991 2616 2845 2648 
Q 2700 2681 2553 2681 
Q 2122 2681 1889 2404 
Q 1656 2128 1656 1613 
L 1656 0 
L 538 0 
L 538 3500 
L 1656 3500 
L 1656 2925 
Q 1872 3269 2151 3426 
Q 2431 3584 2822 3584 
Q 2878 3584 2943 3579 
Q 3009 3575 3134 3559 
L 3138 2547 
z
" id="DejaVuSans-Bold-72" transform="scale(0.015625)"/>
      <path d="M 2106 1575 
Q 1756 1575 1579 1456 
Q 1403 1338 1403 1106 
Q 1403 894 1545 773 
Q 1688 653 1941 653 
Q 2256 653 2472 879 
Q 2688 1106 2688 1447 
L 2688 1575 
L 2106 1575 
z
M 3816 1997 
L 3816 0 
L 2688 0 
L 2688 519 
Q 2463 200 2181 54 
Q 1900 -91 1497 -91 
Q 953 -91 614 226 
Q 275 544 275 1050 
Q 275 1666 698 1953 
Q 1122 2241 2028 2241 
L 2688 2241 
L 2688 2328 
Q 2688 2594 2478 2717 
Q 2269 2841 1825 2841 
Q 1466 2841 1156 2769 
Q 847 2697 581 2553 
L 581 3406 
Q 941 3494 1303 3539 
Q 1666 3584 2028 3584 
Q 2975 3584 3395 3211 
Q 3816 2838 3816 1997 
z
" id="DejaVuSans-Bold-61" transform="scale(0.015625)"/>
      <path d="M 538 4863 
L 1656 4863 
L 1656 0 
L 538 0 
L 538 4863 
z
" id="DejaVuSans-Bold-6c" transform="scale(0.015625)"/>
     </defs>
     <use xlink:href="#DejaVuSans-Bold-44"/>
     <use x="83.007812" xlink:href="#DejaVuSans-Bold-6f"/>
     <use x="151.708984" xlink:href="#DejaVuSans-Bold-63"/>
     <use x="210.986328" xlink:href="#DejaVuSans-Bold-74"/>
     <use x="258.789062" xlink:href="#DejaVuSans-Bold-6f"/>
     <use x="327.490234" xlink:href="#DejaVuSans-Bold-72"/>
     <use x="376.806641" xlink:href="#DejaVuSans-Bold-61"/>
     <use x="444.287109" xlink:href="#DejaVuSans-Bold-6c"/>
    </g>
   </g>
   <g id="text_4">
    <!-- 28% -->
    <g style="fill:#ffffff;" transform="translate(90.635389 205.26297)scale(0.14 -0.14)">
     <defs>
      <path d="M 1844 884 
L 3897 884 
L 3897 0 
L 506 0 
L 506 884 
L 2209 2388 
Q 2438 2594 2547 2791 
Q 2656 2988 2656 3200 
Q 2656 3528 2436 3728 
Q 2216 3928 1850 3928 
Q 1569 3928 1234 3808 
Q 900 3688 519 3450 
L 519 4475 
Q 925 4609 1322 4679 
Q 1719 4750 2100 4750 
Q 2938 4750 3402 4381 
Q 3866 4013 3866 3353 
Q 3866 2972 3669 2642 
Q 3472 2313 2841 1759 
L 1844 884 
z
" id="DejaVuSans-Bold-32" transform="scale(0.015625)"/>
      <path d="M 2228 2088 
Q 1891 2088 1709 1903 
Q 1528 1719 1528 1375 
Q 1528 1031 1709 848 
Q 1891 666 2228 666 
Q 2563 666 2741 848 
Q 2919 1031 2919 1375 
Q 2919 1722 2741 1905 
Q 2563 2088 2228 2088 
z
M 1350 2484 
Q 925 2613 709 2878 
Q 494 3144 494 3541 
Q 494 4131 934 4440 
Q 1375 4750 2228 4750 
Q 3075 4750 3515 4442 
Q 3956 4134 3956 3541 
Q 3956 3144 3739 2878 
Q 3522 2613 3097 2484 
Q 3572 2353 3814 2058 
Q 4056 1763 4056 1313 
Q 4056 619 3595 264 
Q 3134 -91 2228 -91 
Q 1319 -91 855 264 
Q 391 619 391 1313 
Q 391 1763 633 2058 
Q 875 2353 1350 2484 
z
M 1631 3419 
Q 1631 3141 1786 2991 
Q 1941 2841 2228 2841 
Q 2509 2841 2662 2991 
Q 2816 3141 2816 3419 
Q 2816 3697 2662 3845 
Q 2509 3994 2228 3994 
Q 1941 3994 1786 3844 
Q 1631 3694 1631 3419 
z
" id="DejaVuSans-Bold-38" transform="scale(0.015625)"/>
     </defs>
     <use xlink:href="#DejaVuSans-Bold-32"/>
     <use x="69.580078" xlink:href="#DejaVuSans-Bold-38"/>
     <use x="139.160156" xlink:href="#DejaVuSans-Bold-25"/>
    </g>
   </g>
   <g id="text_5">
    <!-- Masters -->
    <g style="fill:#2ca02c;" transform="translate(243.463776 360.587302)scale(0.14 -0.14)">
     <defs>
      <path d="M 588 4666 
L 2119 4666 
L 3181 2169 
L 4250 4666 
L 5778 4666 
L 5778 0 
L 4641 0 
L 4641 3413 
L 3566 897 
L 2803 897 
L 1728 3413 
L 1728 0 
L 588 0 
L 588 4666 
z
" id="DejaVuSans-Bold-4d" transform="scale(0.015625)"/>
      <path d="M 4031 1759 
L 4031 1441 
L 1416 1441 
Q 1456 1047 1700 850 
Q 1944 653 2381 653 
Q 2734 653 3104 758 
Q 3475 863 3866 1075 
L 3866 213 
Q 3469 63 3072 -14 
Q 2675 -91 2278 -91 
Q 1328 -91 801 392 
Q 275 875 275 1747 
Q 275 2603 792 3093 
Q 1309 3584 2216 3584 
Q 3041 3584 3536 3087 
Q 4031 2591 4031 1759 
z
M 2881 2131 
Q 2881 2450 2695 2645 
Q 2509 2841 2209 2841 
Q 1884 2841 1681 2658 
Q 1478 2475 1428 2131 
L 2881 2131 
z
" id="DejaVuSans-Bold-65" transform="scale(0.015625)"/>
     </defs>
     <use xlink:href="#DejaVuSans-Bold-4d"/>
     <use x="99.511719" xlink:href="#DejaVuSans-Bold-61"/>
     <use x="166.992188" xlink:href="#DejaVuSans-Bold-73"/>
     <use x="226.513672" xlink:href="#DejaVuSans-Bold-74"/>
     <use x="274.316406" xlink:href="#DejaVuSans-Bold-65"/>
     <use x="342.138672" xlink:href="#DejaVuSans-Bold-72"/>
     <use x="391.455078" xlink:href="#DejaVuSans-Bold-73"/>
    </g>
   </g>
   <g id="text_6">
    <!-- 31% -->
    <g style="fill:#ffffff;" transform="translate(222.295864 332.226467)scale(0.14 -0.14)">
     <defs>
      <path d="M 750 831 
L 1813 831 
L 1813 3847 
L 722 3622 
L 722 4441 
L 1806 4666 
L 2950 4666 
L 2950 831 
L 4013 831 
L 4013 0 
L 750 0 
L 750 831 
z
" id="DejaVuSans-Bold-31" transform="scale(0.015625)"/>
     </defs>
     <use xlink:href="#DejaVuSans-Bold-33"/>
     <use x="69.580078" xlink:href="#DejaVuSans-Bold-31"/>
     <use x="139.160156" xlink:href="#DejaVuSans-Bold-25"/>
    </g>
   </g>
   <g id="text_7">
    <!-- Bachelors -->
    <g style="fill:#d62728;" transform="translate(361.228975 251.080072)scale(0.14 -0.14)">
     <defs>
      <path d="M 2456 2859 
Q 2741 2859 2887 2984 
Q 3034 3109 3034 3353 
Q 3034 3594 2887 3720 
Q 2741 3847 2456 3847 
L 1791 3847 
L 1791 2859 
L 2456 2859 
z
M 2497 819 
Q 2859 819 3042 972 
Q 3225 1125 3225 1434 
Q 3225 1738 3044 1889 
Q 2863 2041 2497 2041 
L 1791 2041 
L 1791 819 
L 2497 819 
z
M 3616 2497 
Q 4003 2384 4215 2081 
Q 4428 1778 4428 1338 
Q 4428 663 3972 331 
Q 3516 0 2584 0 
L 588 0 
L 588 4666 
L 2394 4666 
Q 3366 4666 3802 4372 
Q 4238 4078 4238 3431 
Q 4238 3091 4078 2852 
Q 3919 2613 3616 2497 
z
" id="DejaVuSans-Bold-42" transform="scale(0.015625)"/>
      <path d="M 4056 2131 
L 4056 0 
L 2931 0 
L 2931 347 
L 2931 1625 
Q 2931 2084 2911 2256 
Q 2891 2428 2841 2509 
Q 2775 2619 2662 2680 
Q 2550 2741 2406 2741 
Q 2056 2741 1856 2470 
Q 1656 2200 1656 1722 
L 1656 0 
L 538 0 
L 538 4863 
L 1656 4863 
L 1656 2988 
Q 1909 3294 2193 3439 
Q 2478 3584 2822 3584 
Q 3428 3584 3742 3212 
Q 4056 2841 4056 2131 
z
" id="DejaVuSans-Bold-68" transform="scale(0.015625)"/>
     </defs>
     <use xlink:href="#DejaVuSans-Bold-42"/>
     <use x="76.220703" xlink:href="#DejaVuSans-Bold-61"/>
     <use x="143.701172" xlink:href="#DejaVuSans-Bold-63"/>
     <use x="202.978516" xlink:href="#DejaVuSans-Bold-68"/>
     <use x="274.169922" xlink:href="#DejaVuSans-Bold-65"/>
     <use x="341.992188" xlink:href="#DejaVuSans-Bold-6c"/>
     <use x="376.269531" xlink:href="#DejaVuSans-Bold-6f"/>
     <use x="444.970703" xlink:href="#DejaVuSans-Bold-72"/>
     <use x="494.287109" xlink:href="#DejaVuSans-Bold-73"/>
    </g>
   </g>
   <g id="text_8">
    <!-- 7% -->
    <g style="fill:#ffffff;" transform="translate(321.378492 244.620682)scale(0.14 -0.14)">
     <defs>
      <path d="M 428 4666 
L 3944 4666 
L 3944 3988 
L 2125 0 
L 953 0 
L 2675 3781 
L 428 3781 
L 428 4666 
z
" id="DejaVuSans-Bold-37" transform="scale(0.015625)"/>
     </defs>
     <use xlink:href="#DejaVuSans-Bold-37"/>
     <use x="69.580078" xlink:href="#DejaVuSans-Bold-25"/>
    </g>
   </g>
   <g id="text_9">
    <!-- Yes -->
    <g style="fill:#1f77b4;" transform="translate(274.045118 184.088733)rotate(-30.782608)scale(0.1 -0.1)">
     <defs>
      <path d="M -63 4666 
L 1253 4666 
L 2316 3003 
L 3378 4666 
L 4697 4666 
L 2919 1966 
L 2919 0 
L 1716 0 
L 1716 1966 
L -63 4666 
z
" id="DejaVuSans-Bold-59" transform="scale(0.015625)"/>
     </defs>
     <use xlink:href="#DejaVuSans-Bold-59"/>
     <use x="63.287109" xlink:href="#DejaVuSans-Bold-65"/>
     <use x="131.109375" xlink:href="#DejaVuSans-Bold-73"/>
    </g>
   </g>
   <g id="text_10">
    <!-- No -->
    <g style="fill:#aec7e8;" transform="translate(211.511373 142.899387)rotate(-271.826085)scale(0.1 -0.1)">
     <defs>
      <path d="M 588 4666 
L 1931 4666 
L 3628 1466 
L 3628 4666 
L 4769 4666 
L 4769 0 
L 3425 0 
L 1728 3200 
L 1728 0 
L 588 0 
L 588 4666 
z
" id="DejaVuSans-Bold-4e" transform="scale(0.015625)"/>
     </defs>
     <use xlink:href="#DejaVuSans-Bold-4e"/>
     <use x="83.691406" xlink:href="#DejaVuSans-Bold-6f"/>
    </g>
   </g>
   <g id="text_11">
    <!-- Yes -->
    <g style="fill:#ff7f0e;" transform="translate(152.674731 173.75116)rotate(-328.695652)scale(0.1 -0.1)">
     <use xlink:href="#DejaVuSans-Bold-59"/>
     <use x="63.287109" xlink:href="#DejaVuSans-Bold-65"/>
     <use x="131.109375" xlink:href="#DejaVuSans-Bold-73"/>
    </g>
   </g>
   <g id="text_12">
    <!-- No -->
    <g style="fill:#ffbb78;" transform="translate(152.769208 245.890409)rotate(-19.304349)scale(0.1 -0.1)">
     <use xlink:href="#DejaVuSans-Bold-4e"/>
     <use x="83.691406" xlink:href="#DejaVuSans-Bold-6f"/>
    </g>
   </g>
   <g id="text_13">
    <!-- Yes -->
    <g style="fill:#2ca02c;" transform="translate(196.645957 289.516211)rotate(-72.521742)scale(0.1 -0.1)">
     <use xlink:href="#DejaVuSans-Bold-59"/>
     <use x="63.287109" xlink:href="#DejaVuSans-Bold-65"/>
     <use x="131.109375" xlink:href="#DejaVuSans-Bold-73"/>
    </g>
   </g>
   <g id="text_14">
    <!-- No -->
    <g style="fill:#98df8a;" transform="translate(257.846713 264.406777)rotate(-307.826089)scale(0.1 -0.1)">
     <use xlink:href="#DejaVuSans-Bold-4e"/>
     <use x="83.691406" xlink:href="#DejaVuSans-Bold-6f"/>
    </g>
   </g>
   <g id="text_15">
    <!-- Yes -->
    <g style="fill:#d62728;" transform="translate(275.000809 242.694399)rotate(-338.608696)scale(0.1 -0.1)">
     <use xlink:href="#DejaVuSans-Bold-59"/>
     <use x="63.287109" xlink:href="#DejaVuSans-Bold-65"/>
     <use x="131.109375" xlink:href="#DejaVuSans-Bold-73"/>
    </g>
   </g>
   <g id="text_16">
    <!-- No -->
    <g style="fill:#ff9896;" transform="translate(277.852485 230.677284)rotate(-351.652175)scale(0.1 -0.1)">
     <use xlink:href="#DejaVuSans-Bold-4e"/>
     <use x="83.691406" xlink:href="#DejaVuSans-Bold-6f"/>
    </g>
   </g>
   <g id="text_17">
    <!-- Do you -->
    <g style="fill:#404050;opacity:0.8;" transform="translate(196.639688 195.267719)scale(0.14 -0.14)">
     <defs>
      <path d="M 1259 4147 
L 1259 519 
L 2022 519 
Q 2988 519 3436 956 
Q 3884 1394 3884 2338 
Q 3884 3275 3436 3711 
Q 2988 4147 2022 4147 
L 1259 4147 
z
M 628 4666 
L 1925 4666 
Q 3281 4666 3915 4102 
Q 4550 3538 4550 2338 
Q 4550 1131 3912 565 
Q 3275 0 1925 0 
L 628 0 
L 628 4666 
z
" id="DejaVuSans-44" transform="scale(0.015625)"/>
      <path d="M 1959 3097 
Q 1497 3097 1228 2736 
Q 959 2375 959 1747 
Q 959 1119 1226 758 
Q 1494 397 1959 397 
Q 2419 397 2687 759 
Q 2956 1122 2956 1747 
Q 2956 2369 2687 2733 
Q 2419 3097 1959 3097 
z
M 1959 3584 
Q 2709 3584 3137 3096 
Q 3566 2609 3566 1747 
Q 3566 888 3137 398 
Q 2709 -91 1959 -91 
Q 1206 -91 779 398 
Q 353 888 353 1747 
Q 353 2609 779 3096 
Q 1206 3584 1959 3584 
z
" id="DejaVuSans-6f" transform="scale(0.015625)"/>
      <path id="DejaVuSans-20" transform="scale(0.015625)"/>
      <path d="M 2059 -325 
Q 1816 -950 1584 -1140 
Q 1353 -1331 966 -1331 
L 506 -1331 
L 506 -850 
L 844 -850 
Q 1081 -850 1212 -737 
Q 1344 -625 1503 -206 
L 1606 56 
L 191 3500 
L 800 3500 
L 1894 763 
L 2988 3500 
L 3597 3500 
L 2059 -325 
z
" id="DejaVuSans-79" transform="scale(0.015625)"/>
      <path d="M 544 1381 
L 544 3500 
L 1119 3500 
L 1119 1403 
Q 1119 906 1312 657 
Q 1506 409 1894 409 
Q 2359 409 2629 706 
Q 2900 1003 2900 1516 
L 2900 3500 
L 3475 3500 
L 3475 0 
L 2900 0 
L 2900 538 
Q 2691 219 2414 64 
Q 2138 -91 1772 -91 
Q 1169 -91 856 284 
Q 544 659 544 1381 
z
M 1991 3584 
L 1991 3584 
z
" id="DejaVuSans-75" transform="scale(0.015625)"/>
     </defs>
     <use xlink:href="#DejaVuSans-44"/>
     <use x="77.001953" xlink:href="#DejaVuSans-6f"/>
     <use x="138.183594" xlink:href="#DejaVuSans-20"/>
     <use x="169.970703" xlink:href="#DejaVuSans-79"/>
     <use x="229.150391" xlink:href="#DejaVuSans-6f"/>
     <use x="290.332031" xlink:href="#DejaVuSans-75"/>
    </g>
    <!-- regularly -->
    <g style="fill:#404050;opacity:0.8;" transform="translate(190.292656 210.944656)scale(0.14 -0.14)">
     <defs>
      <path d="M 2631 2963 
Q 2534 3019 2420 3045 
Q 2306 3072 2169 3072 
Q 1681 3072 1420 2755 
Q 1159 2438 1159 1844 
L 1159 0 
L 581 0 
L 581 3500 
L 1159 3500 
L 1159 2956 
Q 1341 3275 1631 3429 
Q 1922 3584 2338 3584 
Q 2397 3584 2469 3576 
Q 2541 3569 2628 3553 
L 2631 2963 
z
" id="DejaVuSans-72" transform="scale(0.015625)"/>
      <path d="M 3597 1894 
L 3597 1613 
L 953 1613 
Q 991 1019 1311 708 
Q 1631 397 2203 397 
Q 2534 397 2845 478 
Q 3156 559 3463 722 
L 3463 178 
Q 3153 47 2828 -22 
Q 2503 -91 2169 -91 
Q 1331 -91 842 396 
Q 353 884 353 1716 
Q 353 2575 817 3079 
Q 1281 3584 2069 3584 
Q 2775 3584 3186 3129 
Q 3597 2675 3597 1894 
z
M 3022 2063 
Q 3016 2534 2758 2815 
Q 2500 3097 2075 3097 
Q 1594 3097 1305 2825 
Q 1016 2553 972 2059 
L 3022 2063 
z
" id="DejaVuSans-65" transform="scale(0.015625)"/>
      <path d="M 2906 1791 
Q 2906 2416 2648 2759 
Q 2391 3103 1925 3103 
Q 1463 3103 1205 2759 
Q 947 2416 947 1791 
Q 947 1169 1205 825 
Q 1463 481 1925 481 
Q 2391 481 2648 825 
Q 2906 1169 2906 1791 
z
M 3481 434 
Q 3481 -459 3084 -895 
Q 2688 -1331 1869 -1331 
Q 1566 -1331 1297 -1286 
Q 1028 -1241 775 -1147 
L 775 -588 
Q 1028 -725 1275 -790 
Q 1522 -856 1778 -856 
Q 2344 -856 2625 -561 
Q 2906 -266 2906 331 
L 2906 616 
Q 2728 306 2450 153 
Q 2172 0 1784 0 
Q 1141 0 747 490 
Q 353 981 353 1791 
Q 353 2603 747 3093 
Q 1141 3584 1784 3584 
Q 2172 3584 2450 3431 
Q 2728 3278 2906 2969 
L 2906 3500 
L 3481 3500 
L 3481 434 
z
" id="DejaVuSans-67" transform="scale(0.015625)"/>
      <path d="M 603 4863 
L 1178 4863 
L 1178 0 
L 603 0 
L 603 4863 
z
" id="DejaVuSans-6c" transform="scale(0.015625)"/>
      <path d="M 2194 1759 
Q 1497 1759 1228 1600 
Q 959 1441 959 1056 
Q 959 750 1161 570 
Q 1363 391 1709 391 
Q 2188 391 2477 730 
Q 2766 1069 2766 1631 
L 2766 1759 
L 2194 1759 
z
M 3341 1997 
L 3341 0 
L 2766 0 
L 2766 531 
Q 2569 213 2275 61 
Q 1981 -91 1556 -91 
Q 1019 -91 701 211 
Q 384 513 384 1019 
Q 384 1609 779 1909 
Q 1175 2209 1959 2209 
L 2766 2209 
L 2766 2266 
Q 2766 2663 2505 2880 
Q 2244 3097 1772 3097 
Q 1472 3097 1187 3025 
Q 903 2953 641 2809 
L 641 3341 
Q 956 3463 1253 3523 
Q 1550 3584 1831 3584 
Q 2591 3584 2966 3190 
Q 3341 2797 3341 1997 
z
" id="DejaVuSans-61" transform="scale(0.015625)"/>
     </defs>
     <use xlink:href="#DejaVuSans-72"/>
     <use x="38.863281" xlink:href="#DejaVuSans-65"/>
     <use x="100.386719" xlink:href="#DejaVuSans-67"/>
     <use x="163.863281" xlink:href="#DejaVuSans-75"/>
     <use x="227.242188" xlink:href="#DejaVuSans-6c"/>
     <use x="255.025391" xlink:href="#DejaVuSans-61"/>
     <use x="316.304688" xlink:href="#DejaVuSans-72"/>
     <use x="357.417969" xlink:href="#DejaVuSans-6c"/>
     <use x="385.201172" xlink:href="#DejaVuSans-79"/>
    </g>
    <!-- write code -->
    <g style="fill:#404050;opacity:0.8;" transform="translate(184.69375 226.621594)scale(0.14 -0.14)">
     <defs>
      <path d="M 269 3500 
L 844 3500 
L 1563 769 
L 2278 3500 
L 2956 3500 
L 3675 769 
L 4391 3500 
L 4966 3500 
L 4050 0 
L 3372 0 
L 2619 2869 
L 1863 0 
L 1184 0 
L 269 3500 
z
" id="DejaVuSans-77" transform="scale(0.015625)"/>
      <path d="M 603 3500 
L 1178 3500 
L 1178 0 
L 603 0 
L 603 3500 
z
M 603 4863 
L 1178 4863 
L 1178 4134 
L 603 4134 
L 603 4863 
z
" id="DejaVuSans-69" transform="scale(0.015625)"/>
      <path d="M 1172 4494 
L 1172 3500 
L 2356 3500 
L 2356 3053 
L 1172 3053 
L 1172 1153 
Q 1172 725 1289 603 
Q 1406 481 1766 481 
L 2356 481 
L 2356 0 
L 1766 0 
Q 1100 0 847 248 
Q 594 497 594 1153 
L 594 3053 
L 172 3053 
L 172 3500 
L 594 3500 
L 594 4494 
L 1172 4494 
z
" id="DejaVuSans-74" transform="scale(0.015625)"/>
      <path d="M 3122 3366 
L 3122 2828 
Q 2878 2963 2633 3030 
Q 2388 3097 2138 3097 
Q 1578 3097 1268 2742 
Q 959 2388 959 1747 
Q 959 1106 1268 751 
Q 1578 397 2138 397 
Q 2388 397 2633 464 
Q 2878 531 3122 666 
L 3122 134 
Q 2881 22 2623 -34 
Q 2366 -91 2075 -91 
Q 1284 -91 818 406 
Q 353 903 353 1747 
Q 353 2603 823 3093 
Q 1294 3584 2113 3584 
Q 2378 3584 2631 3529 
Q 2884 3475 3122 3366 
z
" id="DejaVuSans-63" transform="scale(0.015625)"/>
      <path d="M 2906 2969 
L 2906 4863 
L 3481 4863 
L 3481 0 
L 2906 0 
L 2906 525 
Q 2725 213 2448 61 
Q 2172 -91 1784 -91 
Q 1150 -91 751 415 
Q 353 922 353 1747 
Q 353 2572 751 3078 
Q 1150 3584 1784 3584 
Q 2172 3584 2448 3432 
Q 2725 3281 2906 2969 
z
M 947 1747 
Q 947 1113 1208 752 
Q 1469 391 1925 391 
Q 2381 391 2643 752 
Q 2906 1113 2906 1747 
Q 2906 2381 2643 2742 
Q 2381 3103 1925 3103 
Q 1469 3103 1208 2742 
Q 947 2381 947 1747 
z
" id="DejaVuSans-64" transform="scale(0.015625)"/>
     </defs>
     <use xlink:href="#DejaVuSans-77"/>
     <use x="81.787109" xlink:href="#DejaVuSans-72"/>
     <use x="122.900391" xlink:href="#DejaVuSans-69"/>
     <use x="150.683594" xlink:href="#DejaVuSans-74"/>
     <use x="189.892578" xlink:href="#DejaVuSans-65"/>
     <use x="251.416016" xlink:href="#DejaVuSans-20"/>
     <use x="283.203125" xlink:href="#DejaVuSans-63"/>
     <use x="338.183594" xlink:href="#DejaVuSans-6f"/>
     <use x="399.365234" xlink:href="#DejaVuSans-64"/>
     <use x="462.841797" xlink:href="#DejaVuSans-65"/>
    </g>
    <!-- at work? -->
    <g style="fill:#404050;opacity:0.8;" transform="translate(191.487031 242.298531)scale(0.14 -0.14)">
     <defs>
      <path d="M 581 4863 
L 1159 4863 
L 1159 1991 
L 2875 3500 
L 3609 3500 
L 1753 1863 
L 3688 0 
L 2938 0 
L 1159 1709 
L 1159 0 
L 581 0 
L 581 4863 
z
" id="DejaVuSans-6b" transform="scale(0.015625)"/>
      <path d="M 1222 794 
L 1856 794 
L 1856 0 
L 1222 0 
L 1222 794 
z
M 1838 1253 
L 1241 1253 
L 1241 1734 
Q 1241 2050 1328 2253 
Q 1416 2456 1697 2725 
L 1978 3003 
Q 2156 3169 2236 3316 
Q 2316 3463 2316 3616 
Q 2316 3894 2111 4066 
Q 1906 4238 1569 4238 
Q 1322 4238 1042 4128 
Q 763 4019 459 3809 
L 459 4397 
Q 753 4575 1054 4662 
Q 1356 4750 1678 4750 
Q 2253 4750 2601 4447 
Q 2950 4144 2950 3647 
Q 2950 3409 2837 3195 
Q 2725 2981 2444 2713 
L 2169 2444 
Q 2022 2297 1961 2214 
Q 1900 2131 1875 2053 
Q 1856 1988 1847 1894 
Q 1838 1800 1838 1638 
L 1838 1253 
z
" id="DejaVuSans-3f" transform="scale(0.015625)"/>
     </defs>
     <use xlink:href="#DejaVuSans-61"/>
     <use x="61.279297" xlink:href="#DejaVuSans-74"/>
     <use x="100.488281" xlink:href="#DejaVuSans-20"/>
     <use x="132.275391" xlink:href="#DejaVuSans-77"/>
     <use x="214.0625" xlink:href="#DejaVuSans-6f"/>
     <use x="275.244141" xlink:href="#DejaVuSans-72"/>
     <use x="316.357422" xlink:href="#DejaVuSans-6b"/>
     <use x="374.267578" xlink:href="#DejaVuSans-3f"/>
    </g>
   </g>
   <g id="text_18">
    <!-- What is your highest level of formal education? -->
    <g style="fill:#404050;" transform="translate(-46.445312 45.84)scale(0.2 -0.2)">
     <defs>
      <path d="M 191 4666 
L 1344 4666 
L 2150 1275 
L 2950 4666 
L 4109 4666 
L 4909 1275 
L 5716 4666 
L 6859 4666 
L 5759 0 
L 4372 0 
L 3525 3547 
L 2688 0 
L 1300 0 
L 191 4666 
z
" id="DejaVuSans-Bold-57" transform="scale(0.015625)"/>
      <path id="DejaVuSans-Bold-20" transform="scale(0.015625)"/>
      <path d="M 538 3500 
L 1656 3500 
L 1656 0 
L 538 0 
L 538 3500 
z
M 538 4863 
L 1656 4863 
L 1656 3950 
L 538 3950 
L 538 4863 
z
" id="DejaVuSans-Bold-69" transform="scale(0.015625)"/>
      <path d="M 78 3500 
L 1197 3500 
L 2138 1125 
L 2938 3500 
L 4056 3500 
L 2584 -331 
Q 2363 -916 2067 -1148 
Q 1772 -1381 1288 -1381 
L 641 -1381 
L 641 -647 
L 991 -647 
Q 1275 -647 1404 -556 
Q 1534 -466 1606 -231 
L 1638 -134 
L 78 3500 
z
" id="DejaVuSans-Bold-79" transform="scale(0.015625)"/>
      <path d="M 500 1363 
L 500 3500 
L 1625 3500 
L 1625 3150 
Q 1625 2866 1622 2436 
Q 1619 2006 1619 1863 
Q 1619 1441 1641 1255 
Q 1663 1069 1716 984 
Q 1784 875 1895 815 
Q 2006 756 2150 756 
Q 2500 756 2700 1025 
Q 2900 1294 2900 1772 
L 2900 3500 
L 4019 3500 
L 4019 0 
L 2900 0 
L 2900 506 
Q 2647 200 2364 54 
Q 2081 -91 1741 -91 
Q 1134 -91 817 281 
Q 500 653 500 1363 
z
" id="DejaVuSans-Bold-75" transform="scale(0.015625)"/>
      <path d="M 2919 594 
Q 2688 288 2409 144 
Q 2131 0 1766 0 
Q 1125 0 706 504 
Q 288 1009 288 1791 
Q 288 2575 706 3076 
Q 1125 3578 1766 3578 
Q 2131 3578 2409 3434 
Q 2688 3291 2919 2981 
L 2919 3500 
L 4044 3500 
L 4044 353 
Q 4044 -491 3511 -936 
Q 2978 -1381 1966 -1381 
Q 1638 -1381 1331 -1331 
Q 1025 -1281 716 -1178 
L 716 -306 
Q 1009 -475 1290 -558 
Q 1572 -641 1856 -641 
Q 2406 -641 2662 -400 
Q 2919 -159 2919 353 
L 2919 594 
z
M 2181 2772 
Q 1834 2772 1640 2515 
Q 1447 2259 1447 1791 
Q 1447 1309 1634 1061 
Q 1822 813 2181 813 
Q 2531 813 2725 1069 
Q 2919 1325 2919 1791 
Q 2919 2259 2725 2515 
Q 2531 2772 2181 2772 
z
" id="DejaVuSans-Bold-67" transform="scale(0.015625)"/>
      <path d="M 97 3500 
L 1216 3500 
L 2088 1081 
L 2956 3500 
L 4078 3500 
L 2700 0 
L 1472 0 
L 97 3500 
z
" id="DejaVuSans-Bold-76" transform="scale(0.015625)"/>
      <path d="M 2841 4863 
L 2841 4128 
L 2222 4128 
Q 1984 4128 1890 4042 
Q 1797 3956 1797 3744 
L 1797 3500 
L 2753 3500 
L 2753 2700 
L 1797 2700 
L 1797 0 
L 678 0 
L 678 2700 
L 122 2700 
L 122 3500 
L 678 3500 
L 678 3744 
Q 678 4316 997 4589 
Q 1316 4863 1984 4863 
L 2841 4863 
z
" id="DejaVuSans-Bold-66" transform="scale(0.015625)"/>
      <path d="M 3781 2919 
Q 3994 3244 4286 3414 
Q 4578 3584 4928 3584 
Q 5531 3584 5847 3212 
Q 6163 2841 6163 2131 
L 6163 0 
L 5038 0 
L 5038 1825 
Q 5041 1866 5042 1909 
Q 5044 1953 5044 2034 
Q 5044 2406 4934 2573 
Q 4825 2741 4581 2741 
Q 4263 2741 4089 2478 
Q 3916 2216 3909 1719 
L 3909 0 
L 2784 0 
L 2784 1825 
Q 2784 2406 2684 2573 
Q 2584 2741 2328 2741 
Q 2006 2741 1831 2477 
Q 1656 2213 1656 1722 
L 1656 0 
L 531 0 
L 531 3500 
L 1656 3500 
L 1656 2988 
Q 1863 3284 2130 3434 
Q 2397 3584 2719 3584 
Q 3081 3584 3359 3409 
Q 3638 3234 3781 2919 
z
" id="DejaVuSans-Bold-6d" transform="scale(0.015625)"/>
      <path d="M 2919 2988 
L 2919 4863 
L 4044 4863 
L 4044 0 
L 2919 0 
L 2919 506 
Q 2688 197 2409 53 
Q 2131 -91 1766 -91 
Q 1119 -91 703 423 
Q 288 938 288 1747 
Q 288 2556 703 3070 
Q 1119 3584 1766 3584 
Q 2128 3584 2408 3439 
Q 2688 3294 2919 2988 
z
M 2181 722 
Q 2541 722 2730 984 
Q 2919 1247 2919 1747 
Q 2919 2247 2730 2509 
Q 2541 2772 2181 2772 
Q 1825 2772 1636 2509 
Q 1447 2247 1447 1747 
Q 1447 1247 1636 984 
Q 1825 722 2181 722 
z
" id="DejaVuSans-Bold-64" transform="scale(0.015625)"/>
      <path d="M 4056 2131 
L 4056 0 
L 2931 0 
L 2931 347 
L 2931 1631 
Q 2931 2084 2911 2256 
Q 2891 2428 2841 2509 
Q 2775 2619 2662 2680 
Q 2550 2741 2406 2741 
Q 2056 2741 1856 2470 
Q 1656 2200 1656 1722 
L 1656 0 
L 538 0 
L 538 3500 
L 1656 3500 
L 1656 2988 
Q 1909 3294 2193 3439 
Q 2478 3584 2822 3584 
Q 3428 3584 3742 3212 
Q 4056 2841 4056 2131 
z
" id="DejaVuSans-Bold-6e" transform="scale(0.015625)"/>
      <path d="M 2216 1575 
L 1088 1575 
L 1088 1728 
Q 1088 1984 1191 2182 
Q 1294 2381 1625 2688 
L 1825 2869 
Q 2003 3031 2086 3175 
Q 2169 3319 2169 3463 
Q 2169 3681 2019 3804 
Q 1869 3928 1600 3928 
Q 1347 3928 1053 3823 
Q 759 3719 441 3513 
L 441 4494 
Q 819 4625 1131 4687 
Q 1444 4750 1734 4750 
Q 2497 4750 2897 4439 
Q 3297 4128 3297 3531 
Q 3297 3225 3175 2983 
Q 3053 2741 2759 2463 
L 2559 2284 
Q 2347 2091 2281 1973 
Q 2216 1856 2216 1716 
L 2216 1575 
z
M 1088 1113 
L 2216 1113 
L 2216 0 
L 1088 0 
L 1088 1113 
z
" id="DejaVuSans-Bold-3f" transform="scale(0.015625)"/>
     </defs>
     <use xlink:href="#DejaVuSans-Bold-57"/>
     <use x="110.302734" xlink:href="#DejaVuSans-Bold-68"/>
     <use x="181.494141" xlink:href="#DejaVuSans-Bold-61"/>
     <use x="248.974609" xlink:href="#DejaVuSans-Bold-74"/>
     <use x="296.777344" xlink:href="#DejaVuSans-Bold-20"/>
     <use x="331.591797" xlink:href="#DejaVuSans-Bold-69"/>
     <use x="365.869141" xlink:href="#DejaVuSans-Bold-73"/>
     <use x="425.390625" xlink:href="#DejaVuSans-Bold-20"/>
     <use x="460.205078" xlink:href="#DejaVuSans-Bold-79"/>
     <use x="525.390625" xlink:href="#DejaVuSans-Bold-6f"/>
     <use x="594.091797" xlink:href="#DejaVuSans-Bold-75"/>
     <use x="665.283203" xlink:href="#DejaVuSans-Bold-72"/>
     <use x="714.599609" xlink:href="#DejaVuSans-Bold-20"/>
     <use x="749.414062" xlink:href="#DejaVuSans-Bold-68"/>
     <use x="820.605469" xlink:href="#DejaVuSans-Bold-69"/>
     <use x="854.882812" xlink:href="#DejaVuSans-Bold-67"/>
     <use x="926.464844" xlink:href="#DejaVuSans-Bold-68"/>
     <use x="997.65625" xlink:href="#DejaVuSans-Bold-65"/>
     <use x="1065.478516" xlink:href="#DejaVuSans-Bold-73"/>
     <use x="1125" xlink:href="#DejaVuSans-Bold-74"/>
     <use x="1172.802734" xlink:href="#DejaVuSans-Bold-20"/>
     <use x="1207.617188" xlink:href="#DejaVuSans-Bold-6c"/>
     <use x="1241.894531" xlink:href="#DejaVuSans-Bold-65"/>
     <use x="1309.716797" xlink:href="#DejaVuSans-Bold-76"/>
     <use x="1374.902344" xlink:href="#DejaVuSans-Bold-65"/>
     <use x="1442.724609" xlink:href="#DejaVuSans-Bold-6c"/>
     <use x="1477.001953" xlink:href="#DejaVuSans-Bold-20"/>
     <use x="1511.816406" xlink:href="#DejaVuSans-Bold-6f"/>
     <use x="1580.517578" xlink:href="#DejaVuSans-Bold-66"/>
     <use x="1624.023438" xlink:href="#DejaVuSans-Bold-20"/>
     <use x="1658.837891" xlink:href="#DejaVuSans-Bold-66"/>
     <use x="1702.34375" xlink:href="#DejaVuSans-Bold-6f"/>
     <use x="1771.044922" xlink:href="#DejaVuSans-Bold-72"/>
     <use x="1820.361328" xlink:href="#DejaVuSans-Bold-6d"/>
     <use x="1924.560547" xlink:href="#DejaVuSans-Bold-61"/>
     <use x="1992.041016" xlink:href="#DejaVuSans-Bold-6c"/>
     <use x="2026.318359" xlink:href="#DejaVuSans-Bold-20"/>
     <use x="2061.132812" xlink:href="#DejaVuSans-Bold-65"/>
     <use x="2128.955078" xlink:href="#DejaVuSans-Bold-64"/>
     <use x="2200.537109" xlink:href="#DejaVuSans-Bold-75"/>
     <use x="2271.728516" xlink:href="#DejaVuSans-Bold-63"/>
     <use x="2331.005859" xlink:href="#DejaVuSans-Bold-61"/>
     <use x="2398.486328" xlink:href="#DejaVuSans-Bold-74"/>
     <use x="2446.289062" xlink:href="#DejaVuSans-Bold-69"/>
     <use x="2480.566406" xlink:href="#DejaVuSans-Bold-6f"/>
     <use x="2549.267578" xlink:href="#DejaVuSans-Bold-6e"/>
     <use x="2620.458984" xlink:href="#DejaVuSans-Bold-3f"/>
    </g>
   </g>
  </g>
 </g>
</svg>
